<svg width="23" height="32" viewBox="0 0 23 32" fill="none" xmlns="http://www.w3.org/2000/svg">
<path d="M6.16633 31.9999C9.11184 31.9999 11.4996 29.6121 11.4996 26.6666V21.3333H6.16633C3.22082 21.3333 0.833008 23.7211 0.833008 26.6666C0.833008 29.6121 3.22082 31.9999 6.16633 31.9999Z" fill="#0ACF83"/>
<path d="M0.833008 16.0001C0.833008 13.0546 3.22082 10.6667 6.16633 10.6667H11.4996V21.3334H6.16633C3.22082 21.3334 0.833008 18.9456 0.833008 16.0001Z" fill="#A259FF"/>
<path d="M0.833008 5.33332C0.833008 2.38781 3.22082 0 6.16633 0H11.4996V10.6666H6.16633C3.22082 10.6666 0.833008 8.27883 0.833008 5.33332Z" fill="#F24E1E"/>
<path d="M11.499 0H16.8323C19.7779 0 22.1657 2.38781 22.1657 5.33332C22.1657 8.27883 19.7779 10.6666 16.8323 10.6666H11.499V0Z" fill="#FF7262"/>
<path d="M22.1657 16.0001C22.1657 18.9456 19.7779 21.3334 16.8323 21.3334C13.8868 21.3334 11.499 18.9456 11.499 16.0001C11.499 13.0546 13.8868 10.6667 16.8323 10.6667C19.7779 10.6667 22.1657 13.0546 22.1657 16.0001Z" fill="#1ABCFE"/>
</svg>
