<svg width="33" height="32" viewBox="0 0 33 32" fill="none" xmlns="http://www.w3.org/2000/svg">
<path d="M0.892131 19.6873C0.820931 19.3838 1.18252 19.1926 1.40297 19.413L13.0869 31.097C13.3074 31.3175 13.1162 31.6791 12.8127 31.6079C6.91648 30.2247 2.27529 25.5835 0.892131 19.6873ZM0.500605 15.0045C0.494959 15.0952 0.529044 15.1837 0.593268 15.2479L17.2521 31.9067C17.3163 31.9709 17.4048 32.0051 17.4955 31.9994C18.2536 31.9521 18.9975 31.8522 19.7235 31.7031C19.9681 31.6529 20.0531 31.3523 19.8765 31.1757L1.3243 12.6235C1.14771 12.4469 0.84713 12.5319 0.796888 12.7765C0.647796 13.5025 0.547826 14.2464 0.500605 15.0045ZM1.8475 9.50572C1.79422 9.62534 1.82136 9.76512 1.91395 9.85772L22.6423 30.586C22.7349 30.6786 22.8747 30.7058 22.9943 30.6525C23.5658 30.3979 24.1197 30.1108 24.6536 29.7936C24.8303 29.6887 24.8576 29.4459 24.7123 29.3006L3.19941 7.78774C3.0541 7.64243 2.81134 7.66969 2.70637 7.84636C2.38915 8.38025 2.10208 8.93417 1.8475 9.50572ZM4.55078 5.78368C4.43235 5.66525 4.42502 5.47529 4.53661 5.35037C7.46944 2.06698 11.7356 0 16.4846 0C25.3297 0 32.5 7.17033 32.5 16.0154C32.5 20.7643 30.433 25.0306 27.1496 27.9634C27.0247 28.075 26.8348 28.0676 26.7163 27.9492L4.55078 5.78368Z" fill="#FF5900"/>
</svg>
