<svg width="122" height="25" viewBox="0 0 122 25" fill="none" xmlns="http://www.w3.org/2000/svg">
<g clip-path="url(#clip0_1024_11960)">
<g filter="url(#filter0_d_1024_11960)">
<path d="M5.21672 10.8736C5.15337 11.0441 4.91163 11.002 4.8885 10.8213C2.96536 -4.19549 23.3971 -0.726146 22.926 13.6391C22.8909 14.7121 21.9726 15.5042 20.9155 15.5042H10.8387C9.52138 15.5042 8.46801 14.2529 9.1625 13.1161C10.4799 10.9596 13.163 10.0578 17.2126 10.4107H17.5904C15.7701 5.1627 7.1907 4.5453 5.21672 10.8736Z" fill="#393941"/>
</g>
<g filter="url(#filter1_i_1024_11960)">
<path d="M4.12187 3.96037C4.34047 3.77576 4.62741 4.04207 4.50522 4.30279C2.41092 8.7712 3.39053 14.5125 7.19747 17.7677C8.85528 19.1852 11.1088 19.4952 13.2753 19.5489L16.2252 19.622C17.9811 19.8361 20.5159 21.1065 21.6073 23.7995C21.7431 24.1346 21.4864 24.4841 21.1296 24.4841H10.1517H9.80987C9.80987 24.4841 9.72089 24.4861 9.6639 24.4841C9.55897 24.4803 9.39641 24.4565 9.39641 24.4565C-2.71376 20.9393 -1.55003 8.75033 4.12187 3.96037Z" fill="url(#paint0_linear_1024_11960)"/>
</g>
<path d="M26.1338 21.7534V19.2295L31.5853 13.6534H26.4035V11.2273H35.6113V13.7512L30.0635 19.3273H35.7461V21.7534H26.1338ZM42.0563 21.9882C40.9776 21.9882 40.0337 21.7599 39.2246 21.3034C38.4156 20.8469 37.7863 20.2077 37.3368 19.386C36.8873 18.5642 36.6626 17.599 36.6626 16.4903C36.6626 15.3816 36.8873 14.4229 37.3368 13.6142C37.7863 12.7925 38.4091 12.1534 39.2053 11.6968C40.0144 11.2273 40.9583 10.9925 42.037 10.9925C43.1158 10.9925 44.0468 11.2273 44.8302 11.6968C45.6264 12.1534 46.2364 12.8121 46.6602 13.6729C47.084 14.5338 47.2959 15.5577 47.2959 16.7447V17.3708H40.0914C40.13 18.1012 40.329 18.649 40.6886 19.0142C41.061 19.3664 41.5362 19.5425 42.1141 19.5425C42.5507 19.5425 42.9167 19.4577 43.2121 19.2882C43.5074 19.1055 43.7193 18.8121 43.8478 18.4077L47.161 18.6034C46.8785 19.699 46.2813 20.5403 45.3696 21.1273C44.4578 21.7012 43.3533 21.9882 42.0563 21.9882ZM40.0914 15.4534H43.9441C43.9184 14.7621 43.7322 14.2469 43.3854 13.9077C43.0387 13.5555 42.5892 13.3795 42.037 13.3795C41.5105 13.3795 41.0674 13.5621 40.7079 13.9273C40.3611 14.2925 40.1557 14.8012 40.0914 15.4534ZM49.287 24.6882V22.2621H50.7125C51.0336 22.2621 51.2711 22.2099 51.4252 22.1055C51.5794 22.0142 51.7014 21.8447 51.7912 21.5969L51.9646 21.1273H51.0978L47.4956 11.2273H50.8474L52.9856 17.9577L54.9887 11.2273H58.3212L54.4108 22.6338C54.154 23.3773 53.8008 23.9055 53.3516 24.2186C52.9021 24.5316 52.2728 24.6882 51.4638 24.6882H49.287ZM62.7855 21.9882C61.9122 21.9882 61.161 21.7664 60.5317 21.3229C59.9153 20.8664 59.4337 20.2273 59.087 19.4055C58.7402 18.5838 58.5669 17.6121 58.5669 16.4903C58.5669 15.3686 58.7402 14.3969 59.087 13.5751C59.4337 12.7534 59.9217 12.1208 60.551 11.6773C61.1931 11.2208 61.9379 10.9925 62.7855 10.9925C63.5303 10.9925 64.166 11.149 64.6925 11.4621C65.2191 11.7621 65.6172 12.186 65.8869 12.7338V7.86207H69.2001V21.7534H66.0024L65.9446 20.2273C65.6621 20.7882 65.2447 21.2251 64.6925 21.5382C64.1403 21.8382 63.5046 21.9882 62.7855 21.9882ZM63.9413 19.5034C64.3651 19.5034 64.7182 19.3925 65.0007 19.1708C65.2961 18.949 65.5144 18.6164 65.6557 18.1729C65.8098 17.7295 65.8869 17.1686 65.8869 16.4903C65.8869 15.8121 65.8098 15.2512 65.6557 14.8077C65.5144 14.3642 65.2961 14.0316 65.0007 13.8099C64.7182 13.5882 64.3651 13.4773 63.9413 13.4773C63.3377 13.4773 62.8561 13.7512 62.4965 14.299C62.1498 14.8338 61.9764 15.5642 61.9764 16.4903C61.9764 17.3903 62.1562 18.1208 62.5158 18.6816C62.8754 19.2295 63.3505 19.5034 63.9413 19.5034ZM76.0037 21.9882C74.925 21.9882 73.9811 21.7599 73.1721 21.3034C72.363 20.8469 71.7338 20.2077 71.2843 19.386C70.8348 18.5642 70.6101 17.599 70.6101 16.4903C70.6101 15.3816 70.8348 14.4229 71.2843 13.6142C71.7338 12.7925 72.3566 12.1534 73.1528 11.6968C73.9619 11.2273 74.9058 10.9925 75.9845 10.9925C77.0632 10.9925 77.9943 11.2273 78.7776 11.6968C79.5739 12.1534 80.1839 12.8121 80.6076 13.6729C81.0314 14.5338 81.2433 15.5577 81.2433 16.7447V17.3708H74.0389C74.0774 18.1012 74.2765 18.649 74.6361 19.0142C75.0085 19.3664 75.4836 19.5425 76.0615 19.5425C76.4982 19.5425 76.8642 19.4577 77.1595 19.2882C77.4549 19.1055 77.6668 18.8121 77.7952 18.4077L81.1085 18.6034C80.826 19.699 80.2288 20.5403 79.317 21.1273C78.4052 21.7012 77.3008 21.9882 76.0037 21.9882ZM74.0389 15.4534H77.8915C77.8659 14.7621 77.6796 14.2469 77.3329 13.9077C76.9862 13.5555 76.5367 13.3795 75.9845 13.3795C75.458 13.3795 75.0149 13.5621 74.6553 13.9273C74.3086 14.2925 74.1031 14.8012 74.0389 15.4534ZM87.2893 21.9882C86.172 21.9882 85.241 21.8382 84.4961 21.5382C83.7513 21.2251 83.1798 20.8012 82.7817 20.2664C82.3965 19.7316 82.1781 19.1251 82.1268 18.4468L85.4785 18.3295C85.5556 18.799 85.7418 19.1512 86.0372 19.386C86.3326 19.6208 86.7563 19.7382 87.3086 19.7382C87.758 19.7382 88.1048 19.6664 88.3488 19.5229C88.5928 19.3664 88.7148 19.1382 88.7148 18.8382C88.7148 18.6295 88.6634 18.4599 88.5607 18.3295C88.4708 18.199 88.2846 18.0816 88.002 17.9773C87.7323 17.8729 87.3278 17.7751 86.7885 17.6838C85.6583 17.5012 84.7722 17.2795 84.1301 17.0186C83.488 16.7447 83.0321 16.399 82.7625 15.9816C82.5056 15.5642 82.3772 15.0425 82.3772 14.4164C82.3772 13.386 82.7753 12.5577 83.5715 11.9316C84.3806 11.3055 85.6006 10.9925 87.2315 10.9925C88.246 10.9925 89.0936 11.149 89.7742 11.4621C90.4677 11.7751 91.0007 12.2121 91.3731 12.7729C91.7583 13.3208 91.9959 13.9599 92.0858 14.6903L88.7918 14.8077C88.7533 14.4816 88.6634 14.2012 88.5221 13.9664C88.3809 13.7316 88.2011 13.5555 87.9828 13.4382C87.7645 13.3077 87.5012 13.2425 87.193 13.2425C86.7563 13.2425 86.4096 13.3403 86.1528 13.536C85.9088 13.7186 85.7868 13.9729 85.7868 14.299C85.7868 14.5208 85.8381 14.7099 85.9409 14.8664C86.0564 15.0099 86.2427 15.1273 86.4995 15.2186C86.7563 15.3099 87.1031 15.3882 87.5397 15.4534C88.657 15.5968 89.5495 15.8121 90.2173 16.099C90.8851 16.3729 91.3667 16.7316 91.662 17.1751C91.9702 17.6055 92.1243 18.1338 92.1243 18.7599C92.1243 19.4512 91.9253 20.0382 91.5272 20.5208C91.1419 21.0034 90.5897 21.3686 89.8706 21.6164C89.1514 21.8642 88.291 21.9882 87.2893 21.9882ZM93.5236 21.7534V11.2273H96.8369V21.7534H93.5236ZM93.4658 10.0534V7.54902H96.8947V10.0534H93.4658ZM103.65 24.9229C102.571 24.9229 101.685 24.799 100.992 24.5512C100.311 24.3034 99.7782 23.9577 99.393 23.5142C99.0077 23.0708 98.7316 22.5686 98.5647 22.0077L101.955 21.7534C102.045 22.0534 102.212 22.2816 102.456 22.4382C102.713 22.6077 103.111 22.6925 103.65 22.6925C104.254 22.6925 104.716 22.536 105.037 22.2229C105.358 21.9099 105.519 21.3947 105.519 20.6773V19.7382C105.275 20.1947 104.883 20.5664 104.344 20.8534C103.804 21.1403 103.201 21.2838 102.533 21.2838C101.698 21.2838 100.953 21.0751 100.298 20.6577C99.6562 20.2403 99.149 19.6468 98.7766 18.8773C98.417 18.1077 98.2372 17.2012 98.2372 16.1577C98.2372 15.1534 98.417 14.2664 98.7766 13.4968C99.149 12.7142 99.6562 12.1012 100.298 11.6577C100.94 11.2142 101.685 10.9925 102.533 10.9925C103.303 10.9925 103.939 11.1621 104.44 11.5012C104.941 11.8403 105.326 12.2838 105.596 12.8316V11.2273H108.87V20.6186C108.87 21.5838 108.646 22.386 108.196 23.0251C107.747 23.6642 107.13 24.1403 106.347 24.4534C105.564 24.7664 104.665 24.9229 103.65 24.9229ZM103.612 18.9164C104.215 18.9164 104.69 18.6751 105.037 18.1925C105.384 17.6969 105.557 17.0121 105.557 16.1382C105.557 15.5512 105.48 15.049 105.326 14.6316C105.172 14.2142 104.947 13.8947 104.652 13.6729C104.369 13.4512 104.023 13.3403 103.612 13.3403C102.995 13.3403 102.514 13.5947 102.167 14.1034C101.82 14.6121 101.647 15.2903 101.647 16.1382C101.647 16.986 101.827 17.6642 102.186 18.1729C102.546 18.6686 103.021 18.9164 103.612 18.9164ZM110.988 21.7534V11.2273H113.955L114.09 14.4555L113.685 14.3773C113.775 13.5425 113.974 12.8773 114.282 12.3816C114.603 11.886 115.001 11.5338 115.477 11.3251C115.952 11.1034 116.478 10.9925 117.056 10.9925C117.788 10.9925 118.417 11.1555 118.944 11.4816C119.483 11.7947 119.894 12.2512 120.177 12.8512C120.459 13.4382 120.601 14.149 120.601 14.9838V21.7534H117.287V16.1382C117.287 15.6034 117.249 15.1468 117.172 14.7686C117.095 14.3903 116.953 14.1034 116.748 13.9077C116.555 13.7121 116.273 13.6142 115.9 13.6142C115.361 13.6142 114.957 13.836 114.687 14.2795C114.43 14.7099 114.302 15.3295 114.302 16.1382V21.7534H110.988Z" fill="#909090"/>
</g>
<defs>
<filter id="filter0_d_1024_11960" x="2.76074" y="-0.913044" width="22.1733" height="18.4172" filterUnits="userSpaceOnUse" color-interpolation-filters="sRGB">
<feFlood flood-opacity="0" result="BackgroundImageFix"/>
<feColorMatrix in="SourceAlpha" type="matrix" values="0 0 0 0 0 0 0 0 0 0 0 0 0 0 0 0 0 0 127 0" result="hardAlpha"/>
<feOffset/>
<feGaussianBlur stdDeviation="1"/>
<feComposite in2="hardAlpha" operator="out"/>
<feColorMatrix type="matrix" values="0 0 0 0 0.409446 0 0 0 0 0.409446 0 0 0 0 0.53597 0 0 0 0.1 0"/>
<feBlend mode="normal" in2="BackgroundImageFix" result="effect1_dropShadow_1024_11960"/>
<feBlend mode="normal" in="SourceGraphic" in2="effect1_dropShadow_1024_11960" result="shape"/>
</filter>
<filter id="filter1_i_1024_11960" x="0" y="3.89899" width="21.644" height="20.586" filterUnits="userSpaceOnUse" color-interpolation-filters="sRGB">
<feFlood flood-opacity="0" result="BackgroundImageFix"/>
<feBlend mode="normal" in="SourceGraphic" in2="BackgroundImageFix" result="shape"/>
<feColorMatrix in="SourceAlpha" type="matrix" values="0 0 0 0 0 0 0 0 0 0 0 0 0 0 0 0 0 0 127 0" result="hardAlpha"/>
<feOffset/>
<feGaussianBlur stdDeviation="2"/>
<feComposite in2="hardAlpha" operator="arithmetic" k2="-1" k3="1"/>
<feColorMatrix type="matrix" values="0 0 0 0 1 0 0 0 0 1 0 0 0 0 1 0 0 0 0.25 0"/>
<feBlend mode="normal" in2="shape" result="effect1_innerShadow_1024_11960"/>
</filter>
<linearGradient id="paint0_linear_1024_11960" x1="10.938" y1="3.26087" x2="10.938" y2="24.4841" gradientUnits="userSpaceOnUse">
<stop stop-color="#D065FF"/>
<stop offset="0.51" stop-color="#F26CA7"/>
<stop offset="1" stop-color="#FFAA4C"/>
</linearGradient>
<clipPath id="clip0_1024_11960">
<rect width="122" height="25" fill="white"/>
</clipPath>
</defs>
</svg>
