<svg width="16" height="17" viewBox="0 0 16 17" fill="none" xmlns="http://www.w3.org/2000/svg">
<path d="M8 0.5C12.4183 0.5 16 4.08173 16 8.5C16 12.9183 12.4183 16.5 8 16.5C3.58173 16.5 0 12.9183 0 8.5C1.28852e-07 4.08173 3.58173 0.5 8 0.5ZM8 1.2998C4.02356 1.2998 0.799805 4.52356 0.799805 8.5C0.799805 12.4764 4.02356 15.7002 8 15.7002C11.9764 15.7002 15.2002 12.4764 15.2002 8.5C15.2002 4.52356 11.9764 1.2998 8 1.2998Z" fill="#909090"/>
<path d="M6.97845 5.0603C7.01969 5.06034 7.04032 5.07121 7.05072 5.1228L9.04974 11.8972C9.06007 11.9488 9.04939 11.9801 8.99798 11.9802H7.96185C7.91022 11.9802 7.87936 11.9679 7.86908 11.9265L7.3515 10.0349H5.34173L4.84466 11.9167C4.83435 11.9681 4.81373 11.9802 4.75189 11.9802H3.83002C3.76815 11.9802 3.75734 11.9595 3.76752 11.8875L5.54877 5.64526C5.57981 5.53141 5.60091 5.43335 5.61127 5.1228C5.61129 5.08147 5.63196 5.06034 5.66302 5.0603H6.97845ZM11.0439 6.88062C11.0952 6.88073 11.116 6.90157 11.1161 6.95288V11.908C11.1161 11.9594 11.1055 11.9801 11.0439 11.9802H10.0693C10.0071 11.9802 9.98627 11.9489 9.98627 11.8972V6.95288C9.98639 6.9015 10.007 6.88067 10.0585 6.88062H11.0439ZM6.33588 6.06519C6.20117 6.8004 5.87005 8.04115 5.61127 9.0144H7.09173C6.91565 8.32046 6.5019 6.80038 6.34662 6.06519H6.33588ZM10.5576 4.88452C10.9406 4.88452 11.1999 5.14321 11.2001 5.52612C11.2001 5.94029 10.9309 6.16864 10.5478 6.1687C10.175 6.1687 9.91595 5.94035 9.91595 5.52612C9.91616 5.12269 10.1955 4.88471 10.5576 4.88452Z" fill="url(#paint0_linear_851_8595)"/>
<defs>
<linearGradient id="paint0_linear_851_8595" x1="3.76416" y1="5.27115" x2="11.3419" y2="6.39051" gradientUnits="userSpaceOnUse">
<stop stop-color="#FCFFEC"/>
<stop offset="1" stop-color="#FCFFEC" stop-opacity="0.02"/>
</linearGradient>
</defs>
</svg>
