<svg width="14" height="9" viewBox="0 0 14 9" fill="none" xmlns="http://www.w3.org/2000/svg">
<path d="M8.90625 0.792675H12.0234V1.54893H8.90625V0.792675ZM5.78281 3.78486C6.47188 3.45518 6.83281 2.95361 6.83281 2.17861C6.83281 0.645801 5.69219 0.273926 4.375 0.273926H0.75V7.96768H4.47656C5.87344 7.96768 7.18437 7.2958 7.18437 5.7333C7.18437 4.76768 6.72813 4.05361 5.78281 3.78486ZM2.44062 1.58643H4.02656C4.6375 1.58643 5.18594 1.75674 5.18594 2.46611C5.18594 3.11924 4.75938 3.38174 4.15469 3.38174H2.44062V1.58643ZM4.24531 6.66143H2.43906V4.54268H4.28125C5.025 4.54268 5.49531 4.85361 5.49531 5.64111C5.49531 6.41611 4.93438 6.66143 4.24531 6.66143ZM13.2422 5.26299C13.2422 3.61455 12.2781 2.24111 10.5344 2.24111C8.83906 2.24111 7.68594 3.51768 7.68594 5.19111C7.68594 6.92549 8.77812 8.11611 10.5344 8.11611C11.8641 8.11611 12.725 7.51768 13.1391 6.24111H11.7906C11.6437 6.71768 11.0469 6.96768 10.5828 6.96768C9.68594 6.96768 9.21719 6.44268 9.21719 5.55049H13.2312C13.2359 5.4583 13.2422 5.36143 13.2422 5.26299ZM9.21719 4.58486C9.26562 3.85205 9.75469 3.39424 10.4859 3.39424C11.2547 3.39424 11.6391 3.8458 11.7063 4.58486H9.21719Z" fill="#909090"/>
</svg>
