<svg width="16" height="16" viewBox="0 0 16 16" fill="none" xmlns="http://www.w3.org/2000/svg">
<path fill-rule="evenodd" clip-rule="evenodd" d="M13.9418 3.92607C14.1665 4.26237 14.1665 4.73052 14.1665 5.66683V14.1668H14.4998C14.776 14.1668 14.9998 14.3907 14.9998 14.6668C14.9998 14.943 14.776 15.1668 14.4998 15.1668H1.1665C0.890362 15.1668 0.666504 14.943 0.666504 14.6668C0.666504 14.3907 0.890362 14.1668 1.1665 14.1668H1.49984V5.66683C1.49984 4.73052 1.49984 4.26237 1.72454 3.92607C1.82182 3.78048 1.94682 3.65548 2.09241 3.5582C2.38656 3.36166 2.78158 3.33703 3.50252 3.33394C3.49978 3.5282 3.49981 3.73119 3.49983 3.9405L3.49984 4.00016V4.8335H2.83317C2.55703 4.8335 2.33317 5.05735 2.33317 5.3335C2.33317 5.60964 2.55703 5.8335 2.83317 5.8335H3.49984V6.8335H2.83317C2.55703 6.8335 2.33317 7.05735 2.33317 7.3335C2.33317 7.60964 2.55703 7.8335 2.83317 7.8335H3.49984V8.8335H2.83317C2.55703 8.8335 2.33317 9.05735 2.33317 9.3335C2.33317 9.60964 2.55703 9.8335 2.83317 9.8335H3.49984V14.1668H4.49984V4.00016C4.49984 2.74308 4.49984 2.11454 4.89036 1.72402C5.28089 1.3335 5.90942 1.3335 7.1665 1.3335H8.49984C9.75692 1.3335 10.3855 1.3335 10.776 1.72402C11.1665 2.11454 11.1665 2.74308 11.1665 4.00016V14.1668H12.1665V9.8335H12.8332C13.1093 9.8335 13.3332 9.60964 13.3332 9.3335C13.3332 9.05735 13.1093 8.8335 12.8332 8.8335H12.1665V7.8335H12.8332C13.1093 7.8335 13.3332 7.60964 13.3332 7.3335C13.3332 7.05735 13.1093 6.8335 12.8332 6.8335H12.1665V5.8335H12.8332C13.1093 5.8335 13.3332 5.60964 13.3332 5.3335C13.3332 5.05735 13.1093 4.8335 12.8332 4.8335H12.1665V4.00016L12.1665 3.9405C12.1665 3.7312 12.1666 3.5282 12.1638 3.33394C12.8848 3.33703 13.2798 3.36166 13.5739 3.5582C13.7195 3.65548 13.8445 3.78048 13.9418 3.92607ZM8.33317 12.6668C8.33317 12.3907 8.10931 12.1668 7.83317 12.1668C7.55703 12.1668 7.33317 12.3907 7.33317 12.6668V14.1668H8.33317V12.6668ZM5.99984 10.0002C5.99984 9.72402 6.22369 9.50016 6.49984 9.50016H9.1665C9.44265 9.50016 9.6665 9.72402 9.6665 10.0002C9.6665 10.2763 9.44265 10.5002 9.1665 10.5002H6.49984C6.22369 10.5002 5.99984 10.2763 5.99984 10.0002ZM6.49984 7.50016C6.22369 7.50016 5.99984 7.72402 5.99984 8.00016C5.99984 8.27631 6.22369 8.50016 6.49984 8.50016H9.1665C9.44265 8.50016 9.6665 8.27631 9.6665 8.00016C9.6665 7.72402 9.44265 7.50016 9.1665 7.50016H6.49984ZM6.1665 4.66683C6.1665 3.65431 6.98731 2.8335 7.99984 2.8335C9.01236 2.8335 9.83317 3.65431 9.83317 4.66683C9.83317 5.67935 9.01236 6.50016 7.99984 6.50016C6.98731 6.50016 6.1665 5.67935 6.1665 4.66683ZM7.1665 4.66683C7.1665 4.20659 7.5396 3.8335 7.99984 3.8335C8.46007 3.8335 8.83317 4.20659 8.83317 4.66683C8.83317 5.12707 8.46007 5.50016 7.99984 5.50016C7.5396 5.50016 7.1665 5.12707 7.1665 4.66683Z" fill="url(#paint0_linear_2003_12026)"/>
<defs>
<linearGradient id="paint0_linear_2003_12026" x1="0.666503" y1="2.08724" x2="15.28" y2="4.22159" gradientUnits="userSpaceOnUse">
<stop stop-color="#FCFFEC"/>
<stop offset="1" stop-color="#FCFFEC" stop-opacity="0.02"/>
</linearGradient>
</defs>
</svg>
