<svg width="20" height="14" viewBox="0 0 20 14" fill="none" xmlns="http://www.w3.org/2000/svg">
<path fill-rule="evenodd" clip-rule="evenodd" d="M19.5301 2.03302C19.5301 1.39997 19.0525 0.886791 18.4634 0.886791H17.3967C16.8076 0.886791 16.3301 1.39997 16.3301 2.03302V11.967C16.3301 12.6 16.8076 13.1132 17.3967 13.1132H18.4634C19.0525 13.1132 19.5301 12.6 19.5301 11.967V2.03302ZM12.096 3.33207H13.1626C13.7517 3.33207 14.2293 3.85757 14.2293 4.50581V11.9395C14.2293 12.5877 13.7517 13.1132 13.1626 13.1132H12.096C11.5069 13.1132 11.0293 12.5877 11.0293 11.9395V4.50581C11.0293 3.85757 11.5069 3.33207 12.096 3.33207ZM7.76419 5.98112H6.69753C6.10842 5.98112 5.63086 6.51331 5.63086 7.1698V11.9245C5.63086 12.581 6.10842 13.1132 6.69753 13.1132H7.76419C8.3533 13.1132 8.83086 12.581 8.83086 11.9245V7.1698C8.83086 6.51331 8.3533 5.98112 7.76419 5.98112ZM2.46341 8.42641H1.39674C0.807641 8.42641 0.330078 8.951 0.330078 9.59811V11.9415C0.330078 12.5886 0.807641 13.1132 1.39674 13.1132H2.46341C3.05252 13.1132 3.53008 12.5886 3.53008 11.9415V9.59811C3.53008 8.951 3.05252 8.42641 2.46341 8.42641Z" fill="#EDEDEB"/>
</svg>
