<svg width="12" height="13" viewBox="0 0 12 13" fill="none" xmlns="http://www.w3.org/2000/svg">
<g clip-path="url(#clip0_4190_11473)">
<mask id="mask0_4190_11473" style="mask-type:luminance" maskUnits="userSpaceOnUse" x="0" y="0" width="12" height="13">
<path d="M6 11.5C6.65673 11.5008 7.30715 11.3719 7.91388 11.1205C8.52062 10.8692 9.07171 10.5005 9.5355 10.0355C10.0005 9.57171 10.3692 9.02062 10.6205 8.41388C10.8719 7.80715 11.0008 7.15673 11 6.5C11.0008 5.84328 10.8719 5.19286 10.6205 4.58613C10.3692 3.97939 10.0005 3.4283 9.5355 2.9645C9.07171 2.49954 8.52062 2.13081 7.91388 1.87948C7.30715 1.62816 6.65673 1.49919 6 1.5C5.34328 1.49919 4.69286 1.62816 4.08613 1.87948C3.47939 2.13081 2.9283 2.49954 2.4645 2.9645C1.99954 3.4283 1.63081 3.97939 1.37948 4.58613C1.12816 5.19286 0.999194 5.84328 1 6.5C0.999194 7.15673 1.12816 7.80715 1.37948 8.41388C1.63081 9.02062 1.99954 9.57171 2.4645 10.0355C2.9283 10.5005 3.47939 10.8692 4.08613 11.1205C4.69286 11.3719 5.34328 11.5008 6 11.5Z" fill="white" stroke="white" stroke-width="2" stroke-linejoin="round"/>
<path d="M4 6.5L5.5 8L8.5 5" stroke="black" stroke-width="2" stroke-linecap="round" stroke-linejoin="round"/>
</mask>
<g mask="url(#mask0_4190_11473)">
<path d="M0 0.5H12V12.5H0V0.5Z" fill="#FF5900"/>
</g>
</g>
<defs>
<clipPath id="clip0_4190_11473">
<rect width="12" height="12" fill="white" transform="translate(0 0.5)"/>
</clipPath>
</defs>
</svg>
