<svg width="14" height="15" viewBox="0 0 14 15" fill="none" xmlns="http://www.w3.org/2000/svg">
<path d="M10.9331 14.1667C12.4059 14.1667 13.5998 12.9728 13.5998 11.5C13.5998 10.0273 12.4059 8.83337 10.9331 8.83337H10.7866L6.91886 12.6987C6.75749 12.86 6.66683 13.0594 6.66683 13.2876C6.66683 13.7624 7.05179 14.1667 7.52666 14.1667H10.9331Z" fill="url(#paint0_linear_851_13205)"/>
<path d="M7.85606 2.80592L7.15291 3.50908C6.84234 3.82075 6.66761 4.24258 6.66683 4.68257L6.66683 10.1747C6.66683 10.8778 6.66683 11.2293 6.87585 11.3133C7.08488 11.3973 7.32816 11.1436 7.81473 10.636L11.7068 6.57632C12.7214 5.51798 12.7038 3.84265 11.667 2.80592C10.6147 1.75355 8.90844 1.75355 7.85606 2.80592Z" fill="url(#paint1_linear_851_13205)"/>
<path fill-rule="evenodd" clip-rule="evenodd" d="M5.66683 3.50004V11.5C5.66683 12.9728 4.47292 14.1667 3.00016 14.1667C1.5274 14.1667 0.333496 12.9728 0.333496 11.5V3.50004C0.333496 2.02728 1.5274 0.833374 3.00016 0.833374C4.47292 0.833374 5.66683 2.02728 5.66683 3.50004ZM3.00016 12.1667C3.36835 12.1667 3.66683 11.8682 3.66683 11.5C3.66683 11.1319 3.36835 10.8334 3.00016 10.8334C2.63197 10.8334 2.3335 11.1319 2.3335 11.5C2.3335 11.8682 2.63197 12.1667 3.00016 12.1667Z" fill="url(#paint2_linear_851_13205)"/>
<defs>
<linearGradient id="paint0_linear_851_13205" x1="0.333496" y1="1.55987" x2="13.8811" y2="3.45992" gradientUnits="userSpaceOnUse">
<stop stop-color="#FCFFEC"/>
<stop offset="1" stop-color="#FCFFEC" stop-opacity="0.02"/>
</linearGradient>
<linearGradient id="paint1_linear_851_13205" x1="0.333496" y1="1.55987" x2="13.8811" y2="3.45992" gradientUnits="userSpaceOnUse">
<stop stop-color="#FCFFEC"/>
<stop offset="1" stop-color="#FCFFEC" stop-opacity="0.02"/>
</linearGradient>
<linearGradient id="paint2_linear_851_13205" x1="0.333496" y1="1.55987" x2="13.8811" y2="3.45992" gradientUnits="userSpaceOnUse">
<stop stop-color="#FCFFEC"/>
<stop offset="1" stop-color="#FCFFEC" stop-opacity="0.02"/>
</linearGradient>
</defs>
</svg>
