<svg width="16" height="16" viewBox="0 0 16 16" fill="none" xmlns="http://www.w3.org/2000/svg">
<path d="M3.23149 8.10676C2.95908 7.79472 2.48529 7.7626 2.17326 8.03501C1.86123 8.30742 1.82911 8.78121 2.10152 9.09324L3.23149 8.10676ZM4.76174 11L4.19675 11.4932C4.33918 11.6564 4.54518 11.75 4.76174 11.75C4.97831 11.75 5.1843 11.6564 5.32673 11.4932L4.76174 11ZM6.63625 9.99324C6.90866 9.68121 6.87654 9.20742 6.56451 8.93501C6.25247 8.6626 5.77869 8.69472 5.50628 9.00676L6.63625 9.99324ZM6.8158 7.50676C6.54339 7.81879 6.57551 8.29258 6.88755 8.56499C7.19958 8.8374 7.67337 8.80528 7.94578 8.49324L6.8158 7.50676ZM8.69031 6.5L8.12533 6.00676L8.12533 6.00676L8.69031 6.5ZM10.5648 5.49324C10.8372 5.18121 10.8051 4.70742 10.4931 4.43501C10.181 4.1626 9.70726 4.19472 9.43485 4.50676L10.5648 5.49324ZM2.6665 8.6L2.10152 9.09324L4.19675 11.4932L4.76174 11L5.32673 10.5068L3.23149 8.10676L2.6665 8.6ZM4.76174 11L5.32673 11.4932L6.63625 9.99324L6.07127 9.5L5.50628 9.00676L4.19675 10.5068L4.76174 11ZM7.38079 8L7.94578 8.49324L9.2553 6.99324L8.69031 6.5L8.12533 6.00676L6.8158 7.50676L7.38079 8ZM8.69031 6.5L9.2553 6.99324L10.5648 5.49324L9.99984 5L9.43485 4.50676L8.12533 6.00676L8.69031 6.5Z" fill="#7828C8"/>
<path d="M13.3335 5.04199L10.4763 8.04199M7.3335 10.667L7.61904 11.042L9.04766 9.54199" stroke="#7828C8" stroke-width="1.5" stroke-linecap="round" stroke-linejoin="round"/>
</svg>
