<svg width="14" height="14" viewBox="0 0 14 14" fill="none" xmlns="http://www.w3.org/2000/svg">
<path fill-rule="evenodd" clip-rule="evenodd" d="M6.99968 0.527832C5.68114 0.527832 4.3922 0.918825 3.29588 1.65137C2.19955 2.38391 1.34506 3.4251 0.840481 4.64328C0.335896 5.86145 0.203874 7.20189 0.461109 8.4951C0.718344 9.78831 1.35328 10.9762 2.28563 11.9085C3.21798 12.8409 4.40587 13.4758 5.69908 13.7331C6.99228 13.9903 8.33273 13.8583 9.5509 13.3537C10.7691 12.8491 11.8103 11.9946 12.5428 10.8983C13.2754 9.80197 13.6663 8.51304 13.6663 7.1945C13.6646 5.42693 12.9616 3.73226 11.7118 2.4824C10.4619 1.23254 8.76725 0.529597 6.99968 0.527832ZM11.4083 3.60383C12.2288 4.60492 12.6828 5.85621 12.695 7.1505C11.3894 6.89302 10.0527 6.83145 8.72901 6.96783C8.68968 6.8685 8.64768 6.77316 8.60634 6.67383C8.48841 6.39498 8.36258 6.11954 8.22901 5.84783C9.46558 5.38843 10.5613 4.61508 11.4083 3.60383ZM5.66634 1.66583C6.10325 1.56209 6.55063 1.50885 6.99968 1.50717C8.39184 1.50531 9.73598 2.01601 10.7757 2.94183C10.0001 3.90106 8.96389 4.61573 7.79168 4.99983C7.15569 3.84394 6.44577 2.73029 5.66634 1.66583ZM1.42768 6.03583C1.60987 5.17291 1.98937 4.36389 2.53644 3.67213C3.08351 2.98037 3.78331 2.42465 4.58101 2.0485C5.34421 3.1074 6.04925 4.20702 6.69301 5.3425C4.9732 5.79213 3.20393 6.02505 1.42634 6.03583H1.42768ZM2.76768 11.0092C1.82363 9.96687 1.30087 8.61077 1.30101 7.2045V7.02983C3.27994 7.03512 5.24975 6.76154 7.15234 6.21717C7.31434 6.53517 7.47034 6.85983 7.61368 7.18317C7.53723 7.20539 7.46257 7.22761 7.38968 7.24983C5.46682 7.94345 3.83555 9.26783 2.76168 11.0072L2.76768 11.0092ZM6.99968 12.8985C5.73321 12.9003 4.50262 12.4779 3.50434 11.6985C4.4916 9.99266 6.08708 8.72295 7.97101 8.14383L8.00768 8.1305C8.54688 9.52824 8.9529 10.9738 9.22034 12.4478C8.51801 12.746 7.76269 12.8993 6.99968 12.8985ZM10.181 11.9238C9.92881 10.5406 9.5588 9.18139 9.07501 7.86117C10.2611 7.68591 11.4711 7.76869 12.6223 8.10383C12.4981 8.87346 12.2175 9.60948 11.7979 10.2665C11.3782 10.9235 10.8284 11.4875 10.1823 11.9238H10.181Z" fill="#909090"/>
</svg>
