<svg width="16" height="13" viewBox="0 0 16 13" fill="none" xmlns="http://www.w3.org/2000/svg">
<path fill-rule="evenodd" clip-rule="evenodd" d="M6.62922 0.36084H9.37111C10.5963 0.360829 11.5667 0.360821 12.3262 0.46293C13.1078 0.568015 13.7404 0.789427 14.2393 1.28834C14.7382 1.78724 14.9597 2.41988 15.0647 3.20149C15.1668 3.96097 15.1668 4.93139 15.1668 6.15657V6.23178C15.1668 7.45696 15.1668 8.42738 15.0647 9.18686C14.9597 9.96847 14.7382 10.6011 14.2393 11.1C13.7404 11.5989 13.1078 11.8203 12.3262 11.9254C11.5667 12.0275 10.5963 12.0275 9.3711 12.0275H6.62922C5.40405 12.0275 4.43362 12.0275 3.67415 11.9254C2.89253 11.8203 2.2599 11.5989 1.76099 11.1C1.26208 10.6011 1.04067 9.96847 0.935586 9.18686C0.833477 8.42738 0.833486 7.45696 0.833496 6.23178V6.15656C0.833486 4.93139 0.833477 3.96097 0.935586 3.20149C1.04067 2.41988 1.26208 1.78724 1.76099 1.28834C2.2599 0.789427 2.89253 0.568015 3.67415 0.46293C4.43362 0.360821 5.40405 0.360829 6.62922 0.36084ZM3.8074 1.45401C3.13667 1.54419 2.75024 1.7133 2.4681 1.99544C2.18596 2.27758 2.01685 2.66401 1.92667 3.33474C1.83456 4.01985 1.8335 4.92296 1.8335 6.19417C1.8335 7.46539 1.83456 8.3685 1.92667 9.05361C2.01685 9.72433 2.18596 10.1108 2.4681 10.3929C2.75024 10.675 3.13667 10.8442 3.8074 10.9343C4.4925 11.0264 5.39562 11.0275 6.66683 11.0275H9.3335C10.6047 11.0275 11.5078 11.0264 12.1929 10.9343C12.8637 10.8442 13.2501 10.675 13.5322 10.3929C13.8144 10.1108 13.9835 9.72433 14.0737 9.05361C14.1658 8.3685 14.1668 7.46539 14.1668 6.19417C14.1668 4.92296 14.1658 4.01985 14.0737 3.33474C13.9835 2.66401 13.8144 2.27758 13.5322 1.99544C13.2501 1.7133 12.8637 1.54419 12.1929 1.45401C11.5078 1.3619 10.6047 1.36084 9.3335 1.36084H6.66683C5.39562 1.36084 4.49251 1.3619 3.8074 1.45401ZM3.61605 3.20741C3.79283 2.99528 4.10812 2.96661 4.32026 3.1434L5.75952 4.34278C6.38149 4.86109 6.81332 5.21978 7.17789 5.45426C7.53079 5.68123 7.77012 5.75742 8.00016 5.75742C8.23021 5.75742 8.46954 5.68123 8.82244 5.45426C9.18701 5.21978 9.61883 4.86109 10.2408 4.34278L11.6801 3.1434C11.8922 2.96661 12.2075 2.99528 12.3843 3.20741C12.5611 3.41955 12.5324 3.73484 12.3203 3.91162L10.8559 5.13189C10.265 5.62433 9.78609 6.02345 9.36338 6.29532C8.92305 6.57853 8.49422 6.75742 8.00016 6.75742C7.50611 6.75742 7.07728 6.57853 6.63695 6.29532C6.21424 6.02346 5.73531 5.62433 5.1444 5.1319L3.68007 3.91162C3.46793 3.73484 3.43927 3.41955 3.61605 3.20741Z" fill="#909090"/>
</svg>
