<svg width="16" height="17" viewBox="0 0 16 17" fill="none" xmlns="http://www.w3.org/2000/svg">
<path fill-rule="evenodd" clip-rule="evenodd" d="M5.77789 1.33337C4.27445 1.33337 3.05566 2.55215 3.05566 4.0556C3.05566 4.97314 3.50961 5.78466 4.20517 6.27782C3.50961 6.77098 3.05566 7.58249 3.05566 8.50004C3.05566 9.41759 3.50961 10.2291 4.20518 10.7223C3.50961 11.2154 3.05566 12.0269 3.05566 12.9445C3.05566 14.4479 4.27444 15.6667 5.77789 15.6667C7.28133 15.6667 8.50011 14.4479 8.50011 12.9445V10.6083C8.96929 10.9921 9.56893 11.2223 10.2223 11.2223C11.7258 11.2223 12.9446 10.0035 12.9446 8.50004C12.9446 7.58249 12.4906 6.77097 11.795 6.27782C12.4906 5.78466 12.9446 4.97314 12.9446 4.0556C12.9446 2.55215 11.7258 1.33337 10.2223 1.33337H5.77789ZM7.50011 10.2223H5.77789C4.82673 10.2223 4.05566 9.4512 4.05566 8.50004C4.05566 7.54888 4.82673 6.77782 5.77789 6.77782L7.50011 6.77782L7.50011 8.50004L7.50011 10.2223ZM5.77789 5.77782H7.50011V2.33337H5.77789C4.82673 2.33337 4.05566 3.10444 4.05566 4.0556C4.05566 5.00675 4.82673 5.77782 5.77789 5.77782ZM11.9446 4.0556C11.9446 5.00614 11.1745 5.77682 10.2242 5.77782L9.36214 5.77782L8.50011 5.77782L8.50011 2.33337H10.2223C11.1735 2.33337 11.9446 3.10444 11.9446 4.0556ZM8.50011 8.49792C8.50125 7.54844 9.27073 6.77896 10.2202 6.77782L10.224 6.77782C11.1744 6.77871 11.9446 7.54943 11.9446 8.50004C11.9446 9.4512 11.1735 10.2223 10.2223 10.2223C9.27188 10.2223 8.50125 9.45234 8.50011 8.50215V8.49792ZM5.77789 11.2223C4.82673 11.2223 4.05566 11.9933 4.05566 12.9445C4.05566 13.8956 4.82673 14.6667 5.77789 14.6667C6.72904 14.6667 7.50011 13.8956 7.50011 12.9445V11.2223H5.77789Z" fill="url(#paint0_linear_851_2134)"/>
<defs>
<linearGradient id="paint0_linear_851_2134" x1="3.05566" y1="2.11436" x2="13.2565" y2="3.10639" gradientUnits="userSpaceOnUse">
<stop stop-color="#FCFFEC"/>
<stop offset="1" stop-color="#FCFFEC" stop-opacity="0.02"/>
</linearGradient>
</defs>
</svg>
