<svg width="16" height="16" viewBox="0 0 16 16" fill="none" xmlns="http://www.w3.org/2000/svg">
<path d="M12 5.33325C12 7.54239 10.2091 9.33325 8 9.33325C5.79086 9.33325 4 7.54239 4 5.33325C4 3.12411 5.79086 1.33325 8 1.33325C10.2091 1.33325 12 3.12411 12 5.33325Z" fill="url(#paint0_linear_932_11651)"/>
<path d="M3.35582 7.18896C2.14792 7.87735 1.3335 9.17689 1.3335 10.6667C1.3335 12.8758 3.12436 14.6667 5.3335 14.6667C7.54263 14.6667 9.3335 12.8758 9.3335 10.6667C9.3335 10.4958 9.32278 10.3274 9.30198 10.1622C8.88691 10.2738 8.45049 10.3333 8.00016 10.3333C5.89442 10.3333 4.09271 9.03161 3.35582 7.18896Z" fill="#909090"/>
<path d="M10.2579 9.79576C10.3076 10.0786 10.3335 10.3696 10.3335 10.6666C10.3335 12.0604 9.7632 13.321 8.84326 14.2277C9.39008 14.5083 10.01 14.6666 10.6668 14.6666C12.8759 14.6666 14.6668 12.8758 14.6668 10.6666C14.6668 9.17689 13.8524 7.87735 12.6445 7.18896C12.1919 8.32071 11.3376 9.2484 10.2579 9.79576Z" fill="#909090"/>
<defs>
<linearGradient id="paint0_linear_932_11651" x1="4" y1="1.76915" x2="12.1681" y2="2.92051" gradientUnits="userSpaceOnUse">
<stop stop-color="#FCFFEC"/>
<stop offset="1" stop-color="#FCFFEC" stop-opacity="0.02"/>
</linearGradient>
</defs>
</svg>
