<svg width="16" height="16" viewBox="0 0 16 16" fill="none" xmlns="http://www.w3.org/2000/svg">
<path fill-rule="evenodd" clip-rule="evenodd" d="M10.0825 3.25599C10.0911 3.26361 10.0997 3.27125 10.1083 3.2789L12.7841 5.65746C13.2834 6.10126 13.6973 6.46915 13.9815 6.80312C14.2802 7.15412 14.4929 7.53202 14.4929 7.99965C14.4929 8.46728 14.2802 8.84518 13.9815 9.19618C13.6973 9.53015 13.2834 9.89804 12.7841 10.3418L10.1083 12.7204C10.0996 12.7281 10.0911 12.7357 10.0825 12.7433C9.86621 12.9356 9.66435 13.1151 9.48996 13.2302C9.31871 13.3433 9.0073 13.5076 8.65846 13.3509C8.30961 13.1942 8.22548 12.8524 8.19621 12.6493C8.16641 12.4424 8.16645 12.1723 8.1665 11.8829C8.1665 11.8714 8.1665 11.8599 8.1665 11.8484V10.8027C7.19884 10.8694 6.21826 11.1264 5.36052 11.5444C4.35189 12.0358 3.54637 12.7327 3.1092 13.5654C3.00227 13.7691 2.77017 13.8735 2.54682 13.8184C2.32346 13.7634 2.1665 13.563 2.1665 13.333C2.1665 10.1857 3.08742 8.13636 4.40417 6.87648C5.5519 5.77831 6.95074 5.3277 8.1665 5.23339V4.15088C8.1665 4.13936 8.1665 4.12787 8.1665 4.1164C8.16645 3.82698 8.16641 3.55687 8.19621 3.35003C8.22548 3.14692 8.30961 2.80505 8.65846 2.6484C9.0073 2.49174 9.31871 2.65598 9.48996 2.76905C9.66435 2.88419 9.86621 3.06368 10.0825 3.25599ZM9.16855 3.78429C9.24393 3.84889 9.33393 3.92856 9.4439 4.02631L12.0921 6.38026C12.6262 6.85499 12.9865 7.17685 13.22 7.45119C13.4441 7.71465 13.4929 7.86852 13.4929 7.99965C13.4929 8.13078 13.4441 8.28465 13.22 8.54811C12.9865 8.82246 12.6262 9.14431 12.0921 9.61904L9.4439 11.973C9.33393 12.0707 9.24393 12.1504 9.16855 12.215C9.16675 12.1158 9.1665 11.9956 9.1665 11.8484V10.2854C9.1665 10.0092 8.94265 9.78536 8.6665 9.78536C7.39146 9.78536 6.06647 10.088 4.92249 10.6454C4.30994 10.9439 3.7397 11.3203 3.25579 11.7708C3.50163 9.73953 4.22812 8.42894 5.0955 7.59901C6.17553 6.56563 7.54012 6.21394 8.6665 6.21394C8.94265 6.21394 9.1665 5.99008 9.1665 5.71394V4.15088C9.1665 4.00375 9.16675 3.88355 9.16855 3.78429Z" fill="#EDEDEB"/>
</svg>
