<svg width="16" height="17" viewBox="0 0 16 17" fill="none" xmlns="http://www.w3.org/2000/svg">
<path fill-rule="evenodd" clip-rule="evenodd" d="M1.35205 8.00004C1.60773 4.55167 4.48655 1.83337 8.00025 1.83337C7.44634 1.83337 6.95317 2.07618 6.54745 2.44746C6.14377 2.81688 5.80263 3.33256 5.52672 3.94214C5.24917 4.55532 5.03359 5.27249 4.88767 6.05078C4.7707 6.67467 4.69951 7.33238 4.67579 8.00004H1.35205ZM1.35205 9.00004H4.67579C4.69951 9.6677 4.7707 10.3254 4.88767 10.9493C5.03359 11.7276 5.24917 12.4448 5.52672 13.0579C5.80263 13.6675 6.14377 14.1832 6.54745 14.5526C6.95317 14.9239 7.44634 15.1667 8.00025 15.1667C4.48655 15.1667 1.60773 12.4484 1.35205 9.00004Z" fill="url(#paint0_linear_851_253)"/>
<path d="M8.00025 2.76361C7.81691 2.76361 7.58006 2.84162 7.30465 3.09365C7.02721 3.34755 6.74946 3.74547 6.50406 4.28762C6.26029 4.82618 6.06235 5.47631 5.92614 6.20284C5.81887 6.77499 5.75232 7.3815 5.72897 8.00004H10.2715C10.2482 7.3815 10.1816 6.77499 10.0744 6.20284C9.93815 5.47631 9.74021 4.82618 9.49644 4.28762C9.25105 3.74547 8.97329 3.34755 8.69585 3.09365C8.42044 2.84162 8.18359 2.76361 8.00025 2.76361Z" fill="url(#paint1_linear_851_253)"/>
<path d="M5.92614 10.7972C6.06235 11.5238 6.26029 12.1739 6.50406 12.7125C6.74946 13.2546 7.02721 13.6525 7.30465 13.9064C7.58006 14.1585 7.81691 14.2365 8.00025 14.2365C8.18359 14.2365 8.42044 14.1585 8.69585 13.9064C8.97329 13.6525 9.25104 13.2546 9.49644 12.7125C9.74021 12.1739 9.93815 11.5238 10.0744 10.7972C10.1816 10.2251 10.2482 9.61858 10.2715 9.00004H5.72897C5.75232 9.61858 5.81887 10.2251 5.92614 10.7972Z" fill="url(#paint2_linear_851_253)"/>
<path d="M8.00025 1.83337C8.55416 1.83337 9.04734 2.07618 9.45305 2.44746C9.85673 2.81688 10.1979 3.33256 10.4738 3.94214C10.7513 4.55532 10.9669 5.2725 11.1128 6.05078C11.2298 6.67467 11.301 7.33238 11.3247 8.00004H14.6484C14.3928 4.55167 11.514 1.83337 8.00025 1.83337Z" fill="url(#paint3_linear_851_253)"/>
<path d="M11.1128 10.9493C10.9669 11.7276 10.7513 12.4448 10.4738 13.0579C10.1979 13.6675 9.85673 14.1832 9.45305 14.5526C9.04733 14.9239 8.55416 15.1667 8.00025 15.1667C11.514 15.1667 14.3928 12.4484 14.6484 9.00004H11.3247C11.301 9.6677 11.2298 10.3254 11.1128 10.9493Z" fill="url(#paint4_linear_851_253)"/>
<defs>
<linearGradient id="paint0_linear_851_253" x1="1.35205" y1="2.55987" x2="14.9293" y2="4.46839" gradientUnits="userSpaceOnUse">
<stop stop-color="#FCFFEC"/>
<stop offset="1" stop-color="#FCFFEC" stop-opacity="0.02"/>
</linearGradient>
<linearGradient id="paint1_linear_851_253" x1="1.35205" y1="2.55987" x2="14.9293" y2="4.46839" gradientUnits="userSpaceOnUse">
<stop stop-color="#FCFFEC"/>
<stop offset="1" stop-color="#FCFFEC" stop-opacity="0.02"/>
</linearGradient>
<linearGradient id="paint2_linear_851_253" x1="1.35205" y1="2.55987" x2="14.9293" y2="4.46839" gradientUnits="userSpaceOnUse">
<stop stop-color="#FCFFEC"/>
<stop offset="1" stop-color="#FCFFEC" stop-opacity="0.02"/>
</linearGradient>
<linearGradient id="paint3_linear_851_253" x1="1.35205" y1="2.55987" x2="14.9293" y2="4.46839" gradientUnits="userSpaceOnUse">
<stop stop-color="#FCFFEC"/>
<stop offset="1" stop-color="#FCFFEC" stop-opacity="0.02"/>
</linearGradient>
<linearGradient id="paint4_linear_851_253" x1="1.35205" y1="2.55987" x2="14.9293" y2="4.46839" gradientUnits="userSpaceOnUse">
<stop stop-color="#FCFFEC"/>
<stop offset="1" stop-color="#FCFFEC" stop-opacity="0.02"/>
</linearGradient>
</defs>
</svg>
