<svg width="16" height="16" viewBox="0 0 16 16" fill="none" xmlns="http://www.w3.org/2000/svg">
<g clip-path="url(#clip0_461_14297)">
<path fill-rule="evenodd" clip-rule="evenodd" d="M0.833039 8.00004C0.833039 4.042 4.04166 0.833374 7.9997 0.833374C11.9577 0.833374 15.1664 4.042 15.1664 8.00004V11.3269C15.1664 11.3746 15.1664 11.4237 15.1664 11.4742C15.1664 11.4999 15.1664 11.5259 15.1664 11.5524V11.676C15.1664 11.7029 15.1664 11.7294 15.1664 11.7556C15.1666 12.3648 15.1667 12.7733 15.0655 13.1314C14.8676 13.8316 14.392 14.4187 13.7482 14.739C13.4184 14.9031 13.0241 14.9681 12.4541 15.062C12.4276 15.0663 12.4008 15.0707 12.3736 15.0752L12.3592 15.0776C12.1565 15.1111 11.9824 15.1398 11.8377 15.1547C11.6869 15.1702 11.5316 15.1751 11.3723 15.1423C10.8493 15.0346 10.4309 14.6525 10.2555 14.1513C10.2025 14.0001 10.1835 13.8462 10.1748 13.691C10.1664 13.5413 10.1664 13.3587 10.1664 13.1427V10.1248C10.1664 10.102 10.1663 10.0794 10.1663 10.0571C10.166 9.73916 10.1657 9.47505 10.2336 9.24938C10.3887 8.73321 10.7987 8.32805 11.3257 8.20144C11.5559 8.14615 11.8178 8.16814 12.1166 8.19322C12.1391 8.19511 12.1617 8.19701 12.1845 8.19889C12.2117 8.20113 12.2385 8.20333 12.2648 8.2055C12.8248 8.25152 13.2119 8.28334 13.5405 8.41044C13.7678 8.49835 13.9779 8.61846 14.1664 8.76501V8.00004C14.1664 4.59429 11.4055 1.83337 7.9997 1.83337C4.59395 1.83337 1.83304 4.59429 1.83304 8.00004V8.76501C2.02152 8.61846 2.23162 8.49835 2.45888 8.41044C2.78747 8.28334 3.17458 8.25152 3.73458 8.2055C3.76096 8.20333 3.78772 8.20113 3.81488 8.19889C3.83772 8.19701 3.86036 8.19511 3.88278 8.19322C4.1816 8.16814 4.44353 8.14615 4.67369 8.20144C5.20073 8.32805 5.61072 8.73321 5.76586 9.24938C5.83368 9.47505 5.83341 9.73916 5.83308 10.0571C5.83306 10.0794 5.83304 10.102 5.83304 10.1248V13.1427C5.83304 13.3586 5.83305 13.5413 5.82463 13.691C5.8159 13.8462 5.79691 14.0001 5.74396 14.1513C5.56846 14.6525 5.1501 15.0346 4.62713 15.1423C4.46783 15.1751 4.31247 15.1702 4.16168 15.1547C4.01701 15.1398 3.8429 15.1111 3.64021 15.0776L3.62577 15.0752C3.59856 15.0707 3.57175 15.0663 3.54531 15.062C2.9753 14.9681 2.58098 14.9031 2.25122 14.739C1.60739 14.4187 1.13181 13.8316 0.933918 13.1314C0.846885 12.8234 0.834793 12.4782 0.833228 12L0.833039 11.9051C0.832993 11.8566 0.833008 11.8068 0.833023 11.7556C0.833031 11.7294 0.833039 11.7029 0.833039 11.676V11.5524C0.833039 11.5259 0.833031 11.4999 0.833024 11.4742C0.833009 11.4238 0.832995 11.3749 0.833039 11.3273V8.00004ZM1.83304 11.676C1.83304 12.3945 1.8377 12.6523 1.89622 12.8594C2.02032 13.2985 2.31469 13.6537 2.69663 13.8437C2.87425 13.9321 3.10648 13.9759 3.7887 14.0886C4.00984 14.1251 4.15341 14.1486 4.26382 14.1599C4.37155 14.171 4.41069 14.1659 4.4254 14.1629C4.58816 14.1293 4.7353 14.006 4.80014 13.8208C4.80818 13.7979 4.81968 13.7509 4.8262 13.6349C4.83285 13.5166 4.83304 13.3623 4.83304 13.129V10.1248C4.83304 9.70201 4.82763 9.60195 4.80818 9.53722C4.75049 9.34528 4.60478 9.21333 4.44011 9.17378C4.3884 9.16135 4.30501 9.16183 3.89716 9.1955C3.2252 9.25098 2.9956 9.27503 2.81965 9.3431C2.37492 9.51512 2.02525 9.90384 1.89112 10.4001C1.83736 10.599 1.83304 10.8515 1.83304 11.5524V11.676ZM7.9997 3.83337C8.27585 3.83337 8.4997 4.05723 8.4997 4.33337L8.49971 7.66671C8.49971 7.94285 8.27585 8.16671 7.99971 8.16671C7.72356 8.16671 7.49971 7.94285 7.49971 7.66671L7.4997 4.33337C7.4997 4.05723 7.72356 3.83337 7.9997 3.83337ZM5.9997 4.83337C6.27585 4.83337 6.4997 5.05723 6.4997 5.33337V6.66671C6.4997 6.94285 6.27585 7.16671 5.9997 7.16671C5.72356 7.16671 5.4997 6.94285 5.4997 6.66671V5.33337C5.4997 5.05723 5.72356 4.83337 5.9997 4.83337ZM9.9997 4.83337C10.2758 4.83337 10.4997 5.05723 10.4997 5.33337V6.66671C10.4997 6.94285 10.2758 7.16671 9.9997 7.16671C9.72356 7.16671 9.4997 6.94285 9.4997 6.66671V5.33337C9.4997 5.05723 9.72356 4.83337 9.9997 4.83337ZM12.1022 9.1955C11.6944 9.16183 11.611 9.16135 11.5593 9.17378C11.3946 9.21333 11.2489 9.34528 11.1912 9.53722C11.1718 9.60195 11.1664 9.70201 11.1664 10.1248V13.129C11.1664 13.3623 11.1666 13.5166 11.1732 13.6349C11.1797 13.7509 11.1912 13.7979 11.1993 13.8208C11.2641 14.006 11.4112 14.1293 11.574 14.1629C11.5887 14.1659 11.6279 14.171 11.7356 14.1599C11.846 14.1486 11.9896 14.1251 12.2107 14.0886C12.8929 13.9759 13.1252 13.9321 13.3028 13.8437C13.6847 13.6537 13.9791 13.2985 14.1032 12.8594C14.1617 12.6523 14.1664 12.3945 14.1664 11.676V11.5524C14.1664 10.8515 14.162 10.599 14.1083 10.4001C13.9742 9.90384 13.6245 9.51512 13.1798 9.3431C13.0038 9.27503 12.7742 9.25098 12.1022 9.1955Z" fill="#EDEDEB"/>
</g>
<defs>
<clipPath id="clip0_461_14297">
<rect width="16" height="16" fill="white"/>
</clipPath>
</defs>
</svg>
