<svg width="16" height="17" viewBox="0 0 16 17" fill="none" xmlns="http://www.w3.org/2000/svg">
<path d="M8 0.5C12.4183 0.5 16 4.08172 16 8.5C16 12.9183 12.4183 16.5 8 16.5C3.58172 16.5 0 12.9183 0 8.5C1.28851e-07 4.08172 3.58172 0.5 8 0.5ZM4 8.32812C4.00019 9.28585 4.77662 10.0625 5.73438 10.0625H6.44434V10.7451C6.44495 11.7013 7.21961 12.4767 8.17578 12.4785V8.66113C8.17578 8.47704 8.02589 8.32812 7.8418 8.32812H4ZM5.90234 6.41406C5.90296 7.3711 6.6787 8.14685 7.63574 8.14746H8.34375V8.83301C8.34498 9.79005 9.12108 10.5654 10.0781 10.5654V6.74805C10.0781 6.56395 9.92824 6.41406 9.74414 6.41406H5.90234ZM7.80371 4.5C7.80371 4.96 7.98625 5.40129 8.31152 5.72656C8.63678 6.05174 9.07816 6.23438 9.53809 6.23438H10.2451V6.91797C10.2458 7.8748 11.0217 8.65055 11.9785 8.65137V4.83301C11.9783 4.64906 11.8295 4.5 11.6455 4.5H7.80371Z" fill="url(#paint0_linear_851_9508)"/>
<defs>
<linearGradient id="paint0_linear_851_9508" x1="-4.66568e-07" y1="1.3718" x2="16.3362" y2="3.67451" gradientUnits="userSpaceOnUse">
<stop stop-color="#FCFFEC"/>
<stop offset="1" stop-color="#FCFFEC" stop-opacity="0.02"/>
</linearGradient>
</defs>
</svg>
