<svg width="16" height="12" viewBox="0 0 16 12" fill="none" xmlns="http://www.w3.org/2000/svg">
<path fill-rule="evenodd" clip-rule="evenodd" d="M0.666992 11.4933C0.666992 11.2135 0.896056 10.9867 1.17862 10.9867H14.822C15.1046 10.9867 15.3337 11.2135 15.3337 11.4933C15.3337 11.7732 15.1046 12 14.822 12H1.17862C0.896056 12 0.666992 11.7732 0.666992 11.4933Z" fill="#909090"/>
<path fill-rule="evenodd" clip-rule="evenodd" d="M2.4602 0.593597C1.86079 1.18719 1.86079 2.14257 1.86079 4.05333V7.43111C1.86079 8.70495 1.86079 9.34187 2.2604 9.7376C2.66 10.1333 3.30316 10.1333 4.58947 10.1333H11.4112C12.6975 10.1333 13.3406 10.1333 13.7403 9.7376C14.1399 9.34187 14.1399 8.70495 14.1399 7.43111V4.05333C14.1399 2.14257 14.1399 1.18719 13.5405 0.593597C12.941 0 11.9763 0 10.0468 0H5.95381C4.02434 0 3.05961 0 2.4602 0.593597ZM5.44219 8.10667C5.44219 7.82684 5.67125 7.6 5.95381 7.6H10.0468C10.3294 7.6 10.5585 7.82684 10.5585 8.10667C10.5585 8.38649 10.3294 8.61333 10.0468 8.61333H5.95381C5.67125 8.61333 5.44219 8.38649 5.44219 8.10667Z" fill="url(#paint0_linear_4417_1478)"/>
<defs>
<linearGradient id="paint0_linear_4417_1478" x1="0.666992" y1="0.653848" x2="15.4991" y2="3.20916" gradientUnits="userSpaceOnUse">
<stop stop-color="#FCFFEC"/>
<stop offset="1" stop-color="#FCFFEC" stop-opacity="0.3"/>
</linearGradient>
</defs>
</svg>
