<svg width="16" height="17" viewBox="0 0 16 17" fill="none" xmlns="http://www.w3.org/2000/svg">
<path d="M3.31938 6.95668C1.99546 6.42711 1.3335 6.16233 1.3335 5.83329C1.3335 5.50426 1.99546 5.23947 3.31938 4.70991L5.19169 3.96098C6.51562 3.43141 7.17758 3.16663 8.00016 3.16663C8.82274 3.16663 9.48471 3.43141 10.8086 3.96098L12.6809 4.70991C14.0049 5.23947 14.6668 5.50426 14.6668 5.83329C14.6668 6.16233 14.0049 6.42711 12.6809 6.95668L10.8086 7.7056C9.48471 8.23517 8.82274 8.49996 8.00016 8.49996C7.17758 8.49996 6.51562 8.23517 5.19169 7.7056L3.31938 6.95668Z" fill="#909090"/>
<path fill-rule="evenodd" clip-rule="evenodd" d="M1.3335 5.83329C1.3335 6.16233 1.99546 6.42711 3.31938 6.95668L5.19169 7.7056C6.51562 8.23517 7.17758 8.49996 8.00016 8.49996C8.82274 8.49996 9.48471 8.23517 10.8086 7.7056L12.6809 6.95668C14.0049 6.42711 14.6668 6.16233 14.6668 5.83329C14.6668 5.50426 14.0049 5.23947 12.6809 4.70991L10.8086 3.96098C9.48471 3.43141 8.82274 3.16663 8.00016 3.16663C7.17758 3.16663 6.51562 3.43141 5.19169 3.96098L3.31938 4.70991C1.99546 5.23947 1.3335 5.50426 1.3335 5.83329Z" fill="url(#paint0_linear_851_5497)"/>
<path d="M12.6809 9.62335L10.8086 10.3723C9.48471 10.9018 8.82274 11.1666 8.00016 11.1666C7.17758 11.1666 6.51562 10.9018 5.19169 10.3723L3.31938 9.62335C1.99546 9.09378 1.3335 8.82899 1.3335 8.49996C1.3335 8.20337 1.87137 7.95898 2.94712 7.52579L5.04111 8.36341C6.27354 8.85663 7.04813 9.16663 8.00016 9.16663C8.95219 9.16663 9.72678 8.85663 10.9592 8.36341L13.0532 7.52579C14.129 7.95897 14.6668 8.20337 14.6668 8.49996C14.6668 8.82899 14.0049 9.09378 12.6809 9.62335Z" fill="url(#paint1_linear_851_5497)"/>
<path d="M12.6809 12.2899L10.8086 13.0388C9.48471 13.5684 8.82274 13.8332 8.00016 13.8332C7.17758 13.8332 6.51562 13.5684 5.19169 13.0388L3.31938 12.2899C1.99546 11.7603 1.3335 11.4955 1.3335 11.1665C1.3335 10.8699 1.87137 10.6255 2.94712 10.1923L5.04111 11.03C6.27354 11.5232 7.04813 11.8332 8.00016 11.8332C8.95219 11.8332 9.72678 11.5232 10.9592 11.03L13.0532 10.1923C14.129 10.6255 14.6668 10.8699 14.6668 11.1665C14.6668 11.4955 14.0049 11.7603 12.6809 12.2899Z" fill="url(#paint2_linear_851_5497)"/>
<defs>
<linearGradient id="paint0_linear_851_5497" x1="1.3335" y1="3.74782" x2="14.7994" y2="6.1205" gradientUnits="userSpaceOnUse">
<stop stop-color="#FCFFEC"/>
<stop offset="1" stop-color="#FCFFEC" stop-opacity="0.02"/>
</linearGradient>
<linearGradient id="paint1_linear_851_5497" x1="1.3335" y1="3.74782" x2="14.7994" y2="6.1205" gradientUnits="userSpaceOnUse">
<stop stop-color="#FCFFEC"/>
<stop offset="1" stop-color="#FCFFEC" stop-opacity="0.02"/>
</linearGradient>
<linearGradient id="paint2_linear_851_5497" x1="1.3335" y1="3.74782" x2="14.7994" y2="6.1205" gradientUnits="userSpaceOnUse">
<stop stop-color="#FCFFEC"/>
<stop offset="1" stop-color="#FCFFEC" stop-opacity="0.02"/>
</linearGradient>
</defs>
</svg>
