<svg width="15" height="14" viewBox="0 0 15 14" fill="none" xmlns="http://www.w3.org/2000/svg">
<path fill-rule="evenodd" clip-rule="evenodd" d="M2.33333 0.027832C1.8471 0.027832 1.38079 0.220986 1.03697 0.564803C0.693154 0.90862 0.5 1.37494 0.5 1.86117C0.5 2.3474 0.693154 2.81371 1.03697 3.15753C1.38079 3.50134 1.8471 3.6945 2.33333 3.6945C2.81956 3.6945 3.28588 3.50134 3.6297 3.15753C3.97351 2.81371 4.16667 2.3474 4.16667 1.86117C4.16667 1.37494 3.97351 0.90862 3.6297 0.564803C3.28588 0.220986 2.81956 0.027832 2.33333 0.027832ZM1.5 1.86117C1.5 1.64015 1.5878 1.42819 1.74408 1.27191C1.90036 1.11563 2.11232 1.02783 2.33333 1.02783C2.55435 1.02783 2.76631 1.11563 2.92259 1.27191C3.07887 1.42819 3.16667 1.64015 3.16667 1.86117C3.16667 2.08218 3.07887 2.29414 2.92259 2.45042C2.76631 2.6067 2.55435 2.6945 2.33333 2.6945C2.11232 2.6945 1.90036 2.6067 1.74408 2.45042C1.5878 2.29414 1.5 2.08218 1.5 1.86117ZM0.5 4.52783C0.5 4.39522 0.552678 4.26805 0.646447 4.17428C0.740215 4.08051 0.867392 4.02783 1 4.02783H3.66667C3.79927 4.02783 3.92645 4.08051 4.02022 4.17428C4.11399 4.26805 4.16667 4.39522 4.16667 4.52783V13.1945C4.16667 13.3271 4.11399 13.4543 4.02022 13.5481C3.92645 13.6418 3.79927 13.6945 3.66667 13.6945H1C0.867392 13.6945 0.740215 13.6418 0.646447 13.5481C0.552678 13.4543 0.5 13.3271 0.5 13.1945V4.52783ZM1.5 5.02783V12.6945H3.16667V5.02783H1.5ZM5.16667 4.52783C5.16667 4.39522 5.21935 4.26805 5.31311 4.17428C5.40688 4.08051 5.53406 4.02783 5.66667 4.02783H8.33333C8.46594 4.02783 8.59312 4.08051 8.68689 4.17428C8.78065 4.26805 8.83333 4.39522 8.83333 4.52783V4.81717L9.12333 4.6925C9.62337 4.4789 10.1538 4.34505 10.6953 4.29583C12.5453 4.12783 14.1667 5.58117 14.1667 7.44783V13.1945C14.1667 13.3271 14.114 13.4543 14.0202 13.5481C13.9265 13.6418 13.7993 13.6945 13.6667 13.6945H11C10.8674 13.6945 10.7402 13.6418 10.6464 13.5481C10.5527 13.4543 10.5 13.3271 10.5 13.1945V8.52783C10.5 8.30682 10.4122 8.09486 10.2559 7.93858C10.0996 7.7823 9.88768 7.6945 9.66667 7.6945C9.44565 7.6945 9.23369 7.7823 9.07741 7.93858C8.92113 8.09486 8.83333 8.30682 8.83333 8.52783V13.1945C8.83333 13.3271 8.78065 13.4543 8.68689 13.5481C8.59312 13.6418 8.46594 13.6945 8.33333 13.6945H5.66667C5.53406 13.6945 5.40688 13.6418 5.31311 13.5481C5.21935 13.4543 5.16667 13.3271 5.16667 13.1945V4.52783ZM6.16667 5.02783V12.6945H7.83333V8.52783C7.83333 8.0416 8.02649 7.57529 8.3703 7.23147C8.71412 6.88765 9.18044 6.6945 9.66667 6.6945C10.1529 6.6945 10.6192 6.88765 10.963 7.23147C11.3068 7.57529 11.5 8.0416 11.5 8.52783V12.6945H13.1667V7.44783C13.1667 6.1785 12.0593 5.17583 10.7867 5.29183C10.3494 5.3315 9.92112 5.43948 9.51733 5.61183L8.53067 6.03517C8.45456 6.06785 8.37153 6.08113 8.28903 6.07379C8.20653 6.06645 8.12715 6.03873 8.05801 5.99312C7.98887 5.94752 7.93215 5.88545 7.89293 5.8125C7.85372 5.73954 7.83324 5.65799 7.83333 5.57517V5.02783H6.16667Z" fill="#909090"/>
</svg>
