<svg width="17" height="16" viewBox="0 0 17 16" fill="none" xmlns="http://www.w3.org/2000/svg">
<path fill-rule="evenodd" clip-rule="evenodd" d="M7.73135 14.6229C4.41158 14.2417 1.8335 11.4219 1.8335 8.00004C1.8335 4.31814 4.81826 1.33337 8.50016 1.33337C12.1821 1.33337 15.1668 4.31814 15.1668 8.00004C15.1668 11.4377 12.9784 11.155 11.1092 10.9136C10.0311 10.7743 9.05923 10.6488 8.67475 11.2587C8.4118 11.6758 8.69604 12.1959 9.04471 12.5446C9.48034 12.9802 9.48034 13.6865 9.04471 14.1222C8.69604 14.4708 8.22122 14.6791 7.73135 14.6229ZM7.89016 4.66654C7.89016 5.21883 7.44245 5.66654 6.89016 5.66654C6.33788 5.66654 5.89016 5.21883 5.89016 4.66654C5.89016 4.11426 6.33788 3.66654 6.89016 3.66654C7.44245 3.66654 7.89016 4.11426 7.89016 4.66654ZM4.8335 8.6667C5.38578 8.6667 5.8335 8.21898 5.8335 7.6667C5.8335 7.11441 5.38578 6.6667 4.8335 6.6667C4.28121 6.6667 3.8335 7.11441 3.8335 7.6667C3.8335 8.21898 4.28121 8.6667 4.8335 8.6667ZM12.1668 8.6667C12.7191 8.6667 13.1668 8.21898 13.1668 7.6667C13.1668 7.11441 12.7191 6.6667 12.1668 6.6667C11.6145 6.6667 11.1668 7.11441 11.1668 7.6667C11.1668 8.21898 11.6145 8.6667 12.1668 8.6667ZM10.1668 5.6667C10.7191 5.6667 11.1668 5.21898 11.1668 4.6667C11.1668 4.11441 10.7191 3.6667 10.1668 3.6667C9.61454 3.6667 9.16683 4.11441 9.16683 4.6667C9.16683 5.21898 9.61454 5.6667 10.1668 5.6667Z" fill="url(#paint0_linear_904_11953)"/>
<defs>
<linearGradient id="paint0_linear_904_11953" x1="1.8335" y1="2.05798" x2="15.4456" y2="3.98172" gradientUnits="userSpaceOnUse">
<stop stop-color="#FCFFEC"/>
<stop offset="1" stop-color="#FCFFEC" stop-opacity="0.02"/>
</linearGradient>
</defs>
</svg>
