<svg width="17" height="16" viewBox="0 0 17 16" fill="none" xmlns="http://www.w3.org/2000/svg">
<path fill-rule="evenodd" clip-rule="evenodd" d="M15.1668 7.99967C15.1668 11.6816 12.1821 14.6663 8.50016 14.6663C4.81826 14.6663 1.8335 11.6816 1.8335 7.99967C1.8335 4.31778 4.81826 1.33301 8.50016 1.33301C12.1821 1.33301 15.1668 4.31778 15.1668 7.99967ZM8.50016 5.16634C8.08595 5.16634 7.75016 5.50213 7.75016 5.91634C7.75016 6.19248 7.52631 6.41634 7.25016 6.41634C6.97402 6.41634 6.75016 6.19248 6.75016 5.91634C6.75016 4.94984 7.53366 4.16634 8.50016 4.16634C9.46666 4.16634 10.2502 4.94984 10.2502 5.91634C10.2502 6.39023 10.0611 6.82099 9.75547 7.13565C9.69396 7.19897 9.63529 7.25759 9.57931 7.31351C9.43542 7.45728 9.30937 7.58323 9.19877 7.72534C9.05274 7.91296 9.00016 8.05085 9.00016 8.16634V8.66634C9.00016 8.94248 8.77631 9.16634 8.50016 9.16634C8.22402 9.16634 8.00016 8.94248 8.00016 8.66634V8.16634C8.00016 7.72955 8.2035 7.37597 8.40961 7.11115C8.56211 6.9152 8.75379 6.7239 8.90935 6.56865C8.95627 6.52182 8.99991 6.47827 9.0382 6.43886C9.16989 6.3033 9.25016 6.1197 9.25016 5.91634C9.25016 5.50213 8.91438 5.16634 8.50016 5.16634ZM8.50016 11.333C8.86835 11.333 9.16683 11.0345 9.16683 10.6663C9.16683 10.2982 8.86835 9.99967 8.50016 9.99967C8.13197 9.99967 7.8335 10.2982 7.8335 10.6663C7.8335 11.0345 8.13197 11.333 8.50016 11.333Z" fill="url(#paint0_linear_2008_10056)"/>
<defs>
<linearGradient id="paint0_linear_2008_10056" x1="1.8335" y1="2.05951" x2="15.447" y2="3.97843" gradientUnits="userSpaceOnUse">
<stop stop-color="#FCFFEC"/>
<stop offset="1" stop-color="#FCFFEC" stop-opacity="0.02"/>
</linearGradient>
</defs>
</svg>
