<svg width="16" height="13" viewBox="0 0 16 13" fill="none" xmlns="http://www.w3.org/2000/svg">
<path fill-rule="evenodd" clip-rule="evenodd" d="M0.833984 12C0.833984 11.7239 1.05784 11.5 1.33398 11.5H14.6673C14.9435 11.5 15.1673 11.7239 15.1673 12C15.1673 12.2761 14.9435 12.5 14.6673 12.5H1.33398C1.05784 12.5 0.833984 12.2761 0.833984 12Z" fill="#909090"/>
<path d="M5.00065 9.33333C4.37757 9.33333 4.06604 9.33333 3.83398 9.19936C3.68197 9.11159 3.55573 8.98535 3.46796 8.83333C3.33398 8.60128 3.33398 8.28974 3.33398 7.66667L3.33398 1.66667C3.33398 1.04359 3.33398 0.732051 3.46796 0.5C3.55573 0.347981 3.68196 0.221743 3.83398 0.133975C4.06603 3.97364e-08 4.37757 2.72598e-08 5.00065 0C5.62373 -2.72113e-08 5.93527 -3.97364e-08 6.16732 0.133975C6.31934 0.221743 6.44557 0.347981 6.53334 0.5C6.66732 0.732051 6.66732 1.04359 6.66732 1.66667V7.66667C6.66732 8.28974 6.66732 8.60128 6.53334 8.83333C6.44557 8.98535 6.31934 9.11159 6.16732 9.19936C5.93527 9.33333 5.62373 9.33333 5.00065 9.33333Z" fill="url(#paint0_linear_4319_9302)"/>
<path d="M11.0007 9.33333C10.3776 9.33333 10.066 9.33333 9.83398 9.19936C9.68197 9.11159 9.55573 8.98535 9.46796 8.83333C9.33398 8.60128 9.33398 8.28974 9.33398 7.66667V3.66667C9.33398 3.04359 9.33398 2.73205 9.46796 2.5C9.55573 2.34798 9.68197 2.22174 9.83398 2.13397C10.066 2 10.3776 2 11.0007 2C11.6237 2 11.9353 2 12.1673 2.13397C12.3193 2.22174 12.4456 2.34798 12.5333 2.5C12.6673 2.73205 12.6673 3.04359 12.6673 3.66667V7.66667C12.6673 8.28974 12.6673 8.60128 12.5333 8.83333C12.4456 8.98535 12.3193 9.11159 12.1673 9.19936C11.9353 9.33333 11.6237 9.33333 11.0007 9.33333Z" fill="url(#paint1_linear_4319_9302)"/>
<defs>
<linearGradient id="paint0_linear_4319_9302" x1="0.833984" y1="0.681092" x2="15.3792" y2="3.03207" gradientUnits="userSpaceOnUse">
<stop stop-color="#FCFFEC"/>
<stop offset="1" stop-color="#FCFFEC" stop-opacity="0.3"/>
</linearGradient>
<linearGradient id="paint1_linear_4319_9302" x1="0.833984" y1="0.681092" x2="15.3792" y2="3.03207" gradientUnits="userSpaceOnUse">
<stop stop-color="#FCFFEC"/>
<stop offset="1" stop-color="#FCFFEC" stop-opacity="0.3"/>
</linearGradient>
</defs>
</svg>
