<svg width="17" height="16" viewBox="0 0 17 16" fill="none" xmlns="http://www.w3.org/2000/svg">
<circle cx="3.8335" cy="3.33325" r="2" fill="url(#paint0_linear_932_13239)"/>
<circle cx="13.1665" cy="12.6667" r="2" fill="url(#paint1_linear_932_13239)"/>
<path fill-rule="evenodd" clip-rule="evenodd" d="M7.33324 3.33325C7.33324 3.05711 7.55709 2.83325 7.83324 2.83325H11.2545C13.0886 2.83325 13.7862 5.22859 12.2388 6.2133L5.29792 10.6302C4.59455 11.0778 4.91161 12.1666 5.74531 12.1666H7.95946L7.81302 12.0201C7.61775 11.8249 7.61775 11.5083 7.81302 11.313C8.00828 11.1178 8.32486 11.1178 8.52012 11.313L9.52012 12.313C9.71539 12.5083 9.71539 12.8249 9.52012 13.0201L8.52012 14.0201C8.32486 14.2154 8.00828 14.2154 7.81302 14.0201C7.61775 13.8249 7.61775 13.5083 7.81302 13.313L7.95946 13.1666H5.74531C3.91115 13.1666 3.21365 10.7712 4.76105 9.78654L11.7019 5.36964C12.4053 4.92204 12.0882 3.83325 11.2545 3.83325H7.83324C7.55709 3.83325 7.33324 3.60939 7.33324 3.33325Z" fill="url(#paint2_linear_932_13239)"/>
<defs>
<linearGradient id="paint0_linear_932_13239" x1="1.8335" y1="1.5512" x2="5.91754" y2="2.12688" gradientUnits="userSpaceOnUse">
<stop stop-color="#FCFFEC"/>
<stop offset="1" stop-color="#FCFFEC" stop-opacity="0.02"/>
</linearGradient>
<linearGradient id="paint1_linear_932_13239" x1="11.1665" y1="10.8847" x2="15.2505" y2="11.4604" gradientUnits="userSpaceOnUse">
<stop stop-color="#FCFFEC"/>
<stop offset="1" stop-color="#FCFFEC" stop-opacity="0.02"/>
</linearGradient>
<linearGradient id="paint2_linear_932_13239" x1="3.90869" y1="3.45078" x2="13.3472" y2="4.52871" gradientUnits="userSpaceOnUse">
<stop stop-color="#FCFFEC"/>
<stop offset="1" stop-color="#FCFFEC" stop-opacity="0.02"/>
</linearGradient>
</defs>
</svg>
