<svg width="16" height="16" viewBox="0 0 16 16" fill="none" xmlns="http://www.w3.org/2000/svg">
<g opacity="0.5" clip-path="url(#clip0_733_13689)">
<mask id="path-1-inside-1_733_13689" fill="white">
<path d="M15.8614 11.6413L14.2214 10.8213L13.1777 8.10628C13.1654 8.07418 13.1466 8.04496 13.1225 8.02044C13.0984 7.99592 13.0695 7.97663 13.0377 7.96378L6.56141 5.37503C6.51612 5.357 6.46656 5.3526 6.41881 5.36238C6.37107 5.37215 6.32722 5.39566 6.29266 5.43003L5.42891 6.29378C5.395 6.32837 5.37186 6.37206 5.36232 6.41955C5.35278 6.46704 5.35724 6.51628 5.37516 6.56128L7.96391 13.0375C7.97676 13.0694 7.99605 13.0983 8.02056 13.1224C8.04508 13.1465 8.07431 13.1652 8.10641 13.1775L10.8214 14.2213L11.6414 15.8613C11.6587 15.8974 11.6844 15.9289 11.7164 15.9531C11.7483 15.9772 11.7857 15.9933 11.8252 16C11.8385 16.0013 11.8519 16.0013 11.8652 16C11.9314 15.9998 11.9947 15.9732 12.0414 15.9263L15.9264 12.0413C15.955 12.0137 15.9766 11.9797 15.9894 11.9421C16.0023 11.9045 16.0059 11.8643 16.0002 11.825C15.9934 11.7855 15.9773 11.7482 15.9532 11.7162C15.929 11.6843 15.8976 11.6585 15.8614 11.6413ZM5.89891 6.52878L6.03766 6.39128L9.26141 9.61503C9.04895 9.91608 8.95719 10.2859 9.00428 10.6513C9.05136 11.0168 9.23386 11.3513 9.51569 11.5886C9.79752 11.826 10.1582 11.949 10.5263 11.9332C10.8944 11.9175 11.2432 11.7642 11.5038 11.5037C11.7643 11.2431 11.9176 10.8943 11.9334 10.5262C11.9491 10.158 11.8261 9.79739 11.5888 9.51556C11.3514 9.23374 11.0169 9.05124 10.6515 9.00415C10.286 8.95707 9.91621 9.04882 9.61516 9.26128L6.39141 6.03753L6.52891 5.89878L12.7502 8.38753L13.7314 10.94L10.9402 13.7313L8.38766 12.75L5.89891 6.52878ZM10.4627 9.49128C10.6873 9.49161 10.905 9.56984 11.0784 9.71263C11.2519 9.85541 11.3705 10.0539 11.4141 10.2744C11.4576 10.4948 11.4233 10.7235 11.3172 10.9215C11.211 11.1195 11.0394 11.2746 10.8318 11.3603C10.6241 11.446 10.3931 11.4571 10.1781 11.3916C9.96321 11.3261 9.77763 11.1882 9.65302 11.0012C9.52841 10.8142 9.47247 10.5898 9.49474 10.3663C9.51701 10.1427 9.61611 9.93374 9.77516 9.77503C9.95767 9.59309 10.2049 9.49103 10.4627 9.49128ZM11.9339 15.3275L11.3089 14.0775L14.0752 11.3113L15.3252 11.9363L11.9339 15.3275Z"/>
</mask>
<path d="M15.8614 11.6413L14.2214 10.8213L13.1777 8.10628C13.1654 8.07418 13.1466 8.04496 13.1225 8.02044C13.0984 7.99592 13.0695 7.97663 13.0377 7.96378L6.56141 5.37503C6.51612 5.357 6.46656 5.3526 6.41881 5.36238C6.37107 5.37215 6.32722 5.39566 6.29266 5.43003L5.42891 6.29378C5.395 6.32837 5.37186 6.37206 5.36232 6.41955C5.35278 6.46704 5.35724 6.51628 5.37516 6.56128L7.96391 13.0375C7.97676 13.0694 7.99605 13.0983 8.02056 13.1224C8.04508 13.1465 8.07431 13.1652 8.10641 13.1775L10.8214 14.2213L11.6414 15.8613C11.6587 15.8974 11.6844 15.9289 11.7164 15.9531C11.7483 15.9772 11.7857 15.9933 11.8252 16C11.8385 16.0013 11.8519 16.0013 11.8652 16C11.9314 15.9998 11.9947 15.9732 12.0414 15.9263L15.9264 12.0413C15.955 12.0137 15.9766 11.9797 15.9894 11.9421C16.0023 11.9045 16.0059 11.8643 16.0002 11.825C15.9934 11.7855 15.9773 11.7482 15.9532 11.7162C15.929 11.6843 15.8976 11.6585 15.8614 11.6413ZM5.89891 6.52878L6.03766 6.39128L9.26141 9.61503C9.04895 9.91608 8.95719 10.2859 9.00428 10.6513C9.05136 11.0168 9.23386 11.3513 9.51569 11.5886C9.79752 11.826 10.1582 11.949 10.5263 11.9332C10.8944 11.9175 11.2432 11.7642 11.5038 11.5037C11.7643 11.2431 11.9176 10.8943 11.9334 10.5262C11.9491 10.158 11.8261 9.79739 11.5888 9.51556C11.3514 9.23374 11.0169 9.05124 10.6515 9.00415C10.286 8.95707 9.91621 9.04882 9.61516 9.26128L6.39141 6.03753L6.52891 5.89878L12.7502 8.38753L13.7314 10.94L10.9402 13.7313L8.38766 12.75L5.89891 6.52878ZM10.4627 9.49128C10.6873 9.49161 10.905 9.56984 11.0784 9.71263C11.2519 9.85541 11.3705 10.0539 11.4141 10.2744C11.4576 10.4948 11.4233 10.7235 11.3172 10.9215C11.211 11.1195 11.0394 11.2746 10.8318 11.3603C10.6241 11.446 10.3931 11.4571 10.1781 11.3916C9.96321 11.3261 9.77763 11.1882 9.65302 11.0012C9.52841 10.8142 9.47247 10.5898 9.49474 10.3663C9.51701 10.1427 9.61611 9.93374 9.77516 9.77503C9.95767 9.59309 10.2049 9.49103 10.4627 9.49128ZM11.9339 15.3275L11.3089 14.0775L14.0752 11.3113L15.3252 11.9363L11.9339 15.3275Z" fill="url(#paint0_linear_733_13689)"/>
<path d="M15.8614 11.6413L14.0726 15.219L14.1051 15.2352L14.1379 15.2509L15.8614 11.6413ZM14.2214 10.8213L10.4878 12.2566L11.0446 13.705L12.4326 14.399L14.2214 10.8213ZM13.1777 8.10628L9.44193 9.53611L9.44405 9.54162L13.1777 8.10628ZM13.0377 7.96378L14.5334 4.25393L14.5224 4.24953L13.0377 7.96378ZM6.56141 5.37503L8.0461 1.66077L8.0409 1.6587L6.56141 5.37503ZM6.29266 5.43003L3.47214 2.59369L3.46423 2.6016L6.29266 5.43003ZM5.42891 6.29378L2.60048 3.46535L2.5865 3.47934L2.57265 3.49346L5.42891 6.29378ZM5.37516 6.56128L1.6589 8.04096L1.6609 8.04598L5.37516 6.56128ZM7.96391 13.0375L4.24964 14.5222L4.25408 14.5332L7.96391 13.0375ZM8.10641 13.1775L9.54175 9.44392L9.53623 9.44181L8.10641 13.1775ZM10.8214 14.2213L14.3991 12.4324L13.7052 11.0445L12.2567 10.4877L10.8214 14.2213ZM11.6414 15.8613L15.251 14.1377L15.2354 14.1049L15.2191 14.0724L11.6414 15.8613ZM11.8252 16L11.1555 19.9436L11.3046 19.9689L11.4552 19.9829L11.8252 16ZM11.8652 16L11.8483 12.0001L11.6714 12.0008L11.4952 12.0172L11.8652 16ZM12.0414 15.9263L9.21297 13.0978L9.20454 13.1063L12.0414 15.9263ZM15.9264 12.0413L13.1489 9.16283L13.1232 9.18761L13.098 9.21285L15.9264 12.0413ZM16.0002 11.825L19.9577 11.2435L19.9512 11.1994L19.9437 11.1554L16.0002 11.825ZM5.89891 6.52878L3.08331 3.68758L1.20052 5.5534L2.18505 8.01447L5.89891 6.52878ZM6.03766 6.39128L8.86608 3.56285L6.05043 0.747198L3.22206 3.55008L6.03766 6.39128ZM9.26141 9.61503L12.5295 11.9214L14.4721 9.16883L12.0898 6.7866L9.26141 9.61503ZM9.61516 9.26128L6.78673 12.0897L9.16896 14.4719L11.9215 12.5294L9.61516 9.26128ZM6.39141 6.03753L3.55021 3.22193L0.747324 6.0503L3.56298 8.86596L6.39141 6.03753ZM6.52891 5.89878L8.0146 2.18492L5.55353 1.2004L3.68771 3.08318L6.52891 5.89878ZM12.7502 8.38753L16.4838 6.95223L15.8572 5.32227L14.2358 4.67367L12.7502 8.38753ZM13.7314 10.94L16.5598 13.7685L18.3976 11.9307L17.465 9.50472L13.7314 10.94ZM10.9402 13.7313L9.50485 17.4649L11.9308 18.3975L13.7686 16.5597L10.9402 13.7313ZM8.38766 12.75L4.6738 14.2357L5.3224 15.857L6.95235 16.4836L8.38766 12.75ZM10.4627 9.49128L10.4686 5.49128L10.4665 5.49128L10.4627 9.49128ZM9.77516 9.77503L6.95121 6.94213L6.9497 6.94363L9.77516 9.77503ZM11.9339 15.3275L8.3562 17.1164L10.8381 22.0802L14.7623 18.156L11.9339 15.3275ZM11.3089 14.0775L8.48048 11.2491L6.44186 13.2877L7.7312 15.8664L11.3089 14.0775ZM14.0752 11.3113L15.864 7.73357L13.2853 6.44424L11.2467 8.48285L14.0752 11.3113ZM15.3252 11.9363L18.1536 14.7647L22.0778 10.8405L17.114 8.35857L15.3252 11.9363ZM15.8614 11.6413L17.6503 8.06357L16.0103 7.24357L14.2214 10.8213L12.4326 14.399L14.0726 15.219L15.8614 11.6413ZM14.2214 10.8213L17.955 9.38594L16.9113 6.67094L13.1777 8.10628L9.44405 9.54162L10.4878 12.2566L14.2214 10.8213ZM13.1777 8.10628L16.9134 6.67645C16.7045 6.13075 16.3854 5.63397 15.9759 5.21715L13.1225 8.02044L10.2692 10.8237C9.90783 10.4559 9.62623 10.0176 9.44194 9.53611L13.1777 8.10628ZM13.1225 8.02044L15.9759 5.21715C15.5664 4.80035 15.0753 4.47245 14.5334 4.25395L13.0377 7.96378L11.5419 11.6736C11.0638 11.4808 10.6305 11.1915 10.2692 10.8237L13.1225 8.02044ZM13.0377 7.96378L14.5224 4.24953L8.0461 1.66078L6.56141 5.37503L5.07671 9.08928L11.553 11.678L13.0377 7.96378ZM6.56141 5.37503L8.0409 1.6587C7.27113 1.35225 6.42856 1.27748 5.61683 1.4436L6.41881 5.36238L7.2208 9.28115C6.50457 9.42773 5.76112 9.36176 5.08191 9.09136L6.56141 5.37503ZM6.41881 5.36238L5.61683 1.4436C4.80512 1.60972 4.05966 2.00947 3.47215 2.5937L6.29266 5.43003L9.11316 8.26636C8.59477 8.78185 7.93702 9.13458 7.2208 9.28115L6.41881 5.36238ZM6.29266 5.43003L3.46423 2.6016L2.60048 3.46535L5.42891 6.29378L8.25733 9.12221L9.12108 8.25846L6.29266 5.43003ZM5.42891 6.29378L2.57265 3.49346C1.99617 4.08145 1.60292 4.82426 1.4407 5.63156L5.36232 6.41955L9.28394 7.20754C9.14081 7.91987 8.79382 8.57528 8.28516 9.0941L5.42891 6.29378ZM5.36232 6.41955L1.4407 5.63156C1.27849 6.43887 1.35429 7.27592 1.6589 8.04096L5.37516 6.56128L9.09141 5.0816C9.36019 5.75664 9.42707 6.49521 9.28394 7.20754L5.36232 6.41955ZM5.37516 6.56128L1.6609 8.04598L4.24965 14.5222L7.96391 13.0375L11.6782 11.5528L9.08941 5.07658L5.37516 6.56128ZM7.96391 13.0375L4.25408 14.5332C4.47258 15.0752 4.80047 15.5662 5.21728 15.9757L8.02056 13.1224L10.8239 10.269C11.1916 10.6303 11.4809 11.0636 11.6737 11.5418L7.96391 13.0375ZM8.02056 13.1224L5.21728 15.9757C5.6341 16.3852 6.13088 16.7044 6.67658 16.9132L8.10641 13.1775L9.53623 9.44181C10.0177 9.6261 10.4561 9.9077 10.8239 10.269L8.02056 13.1224ZM8.10641 13.1775L6.67107 16.9111L9.38607 17.9549L10.8214 14.2213L12.2567 10.4877L9.54175 9.44393L8.10641 13.1775ZM10.8214 14.2213L7.2437 16.0101L8.0637 17.6501L11.6414 15.8613L15.2191 14.0724L14.3991 12.4324L10.8214 14.2213ZM11.6414 15.8613L8.03179 17.5848C8.32532 18.1996 8.76233 18.7347 9.30595 19.1452L11.7164 15.9531L14.1268 12.7609C14.6064 13.1231 14.992 13.5953 15.251 14.1377L11.6414 15.8613ZM11.7164 15.9531L9.30595 19.1452C9.84957 19.5557 10.4839 19.8295 11.1555 19.9436L11.8252 16L12.4948 12.0565C13.0874 12.1571 13.6471 12.3987 14.1268 12.7609L11.7164 15.9531ZM11.8252 16L11.4552 19.9829C11.7146 20.007 11.9757 20.007 12.2351 19.9829L11.8652 16L11.4952 12.0172C11.728 11.9956 11.9623 11.9956 12.1951 12.0172L11.8252 16ZM11.8652 16L11.882 20C13.0073 19.9952 14.0849 19.5444 14.8783 18.7462L12.0414 15.9263L9.20454 13.1063C9.90459 12.4021 10.8554 12.0043 11.8483 12.0001L11.8652 16ZM12.0414 15.9263L14.8698 18.7547L18.7548 14.8697L15.9264 12.0413L13.098 9.21285L9.21298 13.0979L12.0414 15.9263ZM15.9264 12.0413L18.7039 14.9197C19.19 14.4507 19.5573 13.8725 19.7753 13.2332L15.9894 11.9421L12.2035 10.6509C12.3959 10.0869 12.72 9.57671 13.1489 9.16283L15.9264 12.0413ZM15.9894 11.9421L19.7753 13.2332C19.9934 12.5939 20.0559 11.9118 19.9577 11.2435L16.0002 11.825L12.0427 12.4066C11.956 11.8169 12.0112 11.215 12.2035 10.6509L15.9894 11.9421ZM16.0002 11.825L19.9437 11.1554C19.8297 10.4838 19.5559 9.84945 19.1454 9.30582L15.9532 11.7162L12.761 14.1266C12.3988 13.647 12.1572 13.0873 12.0566 12.4947L16.0002 11.825ZM15.9532 11.7162L19.1454 9.30582C18.7349 8.7622 18.1997 8.3252 17.585 8.03166L15.8614 11.6413L14.1379 15.2509C13.5954 14.9919 13.1232 14.6063 12.761 14.1266L15.9532 11.7162ZM5.89891 6.52878L8.7145 9.36998L8.85325 9.23248L6.03766 6.39128L3.22206 3.55008L3.08331 3.68758L5.89891 6.52878ZM6.03766 6.39128L3.20923 9.21971L6.43298 12.4435L9.26141 9.61503L12.0898 6.7866L8.86608 3.56285L6.03766 6.39128ZM9.26141 9.61503L5.99327 7.30866C5.2032 8.42821 4.86197 9.80346 5.03707 11.1625L9.00428 10.6513L12.9715 10.1402C13.0524 10.7683 12.8947 11.404 12.5295 11.9214L9.26141 9.61503ZM9.00428 10.6513L5.03707 11.1625C5.21217 12.5215 5.89085 13.7654 6.9389 14.6481L9.51569 11.5886L12.0925 8.5292C12.5769 8.93718 12.8906 9.51207 12.9715 10.1402L9.00428 10.6513ZM9.51569 11.5886L6.9389 14.6481C7.98695 15.5308 9.32807 15.9881 10.6971 15.9296L10.5263 11.9332L10.3555 7.9369C10.9882 7.90985 11.6081 8.12122 12.0925 8.5292L9.51569 11.5886ZM10.5263 11.9332L10.6971 15.9296C12.0661 15.8711 13.3633 15.301 14.3322 14.3321L11.5038 11.5037L8.67537 8.67524C9.12319 8.22742 9.72275 7.96394 10.3555 7.9369L10.5263 11.9332ZM11.5038 11.5037L14.3322 14.3321C15.3011 13.3632 15.8712 12.066 15.9297 10.697L11.9334 10.5262L7.93702 10.3554C7.96407 9.72262 8.22755 9.12306 8.67537 8.67524L11.5038 11.5037ZM11.9334 10.5262L15.9297 10.697C15.9882 9.32795 15.5309 7.98682 14.6482 6.93877L11.5888 9.51556L8.52933 12.0924C8.12135 11.608 7.90998 10.9881 7.93702 10.3554L11.9334 10.5262ZM11.5888 9.51556L14.6482 6.93877C13.7655 5.89072 12.5216 5.21204 11.1626 5.03694L10.6515 9.00415L10.1403 12.9714C9.5122 12.8904 8.93731 12.5768 8.52933 12.0924L11.5888 9.51556ZM10.6515 9.00415L11.1626 5.03694C9.80359 4.86184 8.42834 5.20307 7.30879 5.99315L9.61516 9.26128L11.9215 12.5294C11.4041 12.8946 10.7685 13.0523 10.1403 12.9714L10.6515 9.00415ZM9.61516 9.26128L12.4436 6.43285L9.21983 3.2091L6.39141 6.03753L3.56298 8.86596L6.78673 12.0897L9.61516 9.26128ZM6.39141 6.03753L9.2326 8.85313L9.3701 8.71438L6.52891 5.89878L3.68771 3.08318L3.55021 3.22193L6.39141 6.03753ZM6.52891 5.89878L5.04321 9.61263L11.2645 12.1014L12.7502 8.38753L14.2358 4.67367L8.0146 2.18492L6.52891 5.89878ZM12.7502 8.38753L9.01654 9.82283L9.99779 12.3753L13.7314 10.94L17.465 9.50472L16.4838 6.95223L12.7502 8.38753ZM13.7314 10.94L10.903 8.1116L8.11173 10.9029L10.9402 13.7313L13.7686 16.5597L16.5598 13.7685L13.7314 10.94ZM10.9402 13.7313L12.3755 9.99766L9.82296 9.01641L8.38766 12.75L6.95235 16.4836L9.50485 17.4649L10.9402 13.7313ZM8.38766 12.75L12.1015 11.2643L9.61276 5.04309L5.89891 6.52878L2.18505 8.01447L4.6738 14.2357L8.38766 12.75ZM10.4627 9.49128L10.4567 13.4913C9.75605 13.4902 9.07743 13.2463 8.53644 12.801L11.0784 9.71263L13.6204 6.62422C12.7325 5.89337 11.6186 5.49299 10.4686 5.49128L10.4627 9.49128ZM11.0784 9.71263L8.53644 12.801C7.99545 12.3558 7.62559 11.7367 7.48985 11.0493L11.4141 10.2744L15.3383 9.49941C15.1155 8.37117 14.5084 7.35507 13.6204 6.62422L11.0784 9.71263ZM11.4141 10.2744L7.48985 11.0493C7.3541 10.3619 7.46088 9.64874 7.79199 9.03125L11.3172 10.9215L14.8424 12.8118C15.3858 11.7982 15.5611 10.6276 15.3383 9.49941L11.4141 10.2744ZM11.3172 10.9215L7.79199 9.03125C8.12309 8.41376 8.65805 7.93017 9.30571 7.66286L10.8318 11.3603L12.3578 15.0578C13.4208 14.619 14.2989 13.8253 14.8424 12.8118L11.3172 10.9215ZM10.8318 11.3603L9.30571 7.66286C9.95337 7.39555 10.6737 7.36106 11.3439 7.56527L10.1781 11.3916L9.01236 15.218C10.1125 15.5531 11.2948 15.4965 12.3578 15.0578L10.8318 11.3603ZM10.1781 11.3916L11.3439 7.56527C12.0142 7.76947 12.5929 8.19974 12.9815 8.78277L9.65302 11.0012L6.32457 13.2196C6.96238 14.1766 7.91225 14.8828 9.01236 15.218L10.1781 11.3916ZM9.65302 11.0012L12.9815 8.78277C13.3701 9.3658 13.5445 10.0655 13.475 10.7627L9.49474 10.3663L5.51444 9.96979C5.40045 11.1142 5.68675 12.2626 6.32457 13.2196L9.65302 11.0012ZM9.49474 10.3663L13.475 10.7627C13.4056 11.4599 13.0966 12.1115 12.6006 12.6064L9.77516 9.77503L6.9497 6.94363C6.13565 7.75597 5.62843 8.82543 5.51444 9.96979L9.49474 10.3663ZM9.77516 9.77503L12.5991 12.6079C12.0309 13.1743 11.2611 13.492 10.4588 13.4913L10.4627 9.49128L10.4665 5.49128C9.14878 5.49002 7.88445 6.01184 6.95121 6.94213L9.77516 9.77503ZM11.9339 15.3275L15.5116 13.5387L14.8866 12.2887L11.3089 14.0775L7.7312 15.8664L8.3562 17.1164L11.9339 15.3275ZM11.3089 14.0775L14.1373 16.906L16.9036 14.1397L14.0752 11.3113L11.2467 8.48285L8.48048 11.2491L11.3089 14.0775ZM14.0752 11.3113L12.2863 14.889L13.5363 15.514L15.3252 11.9363L17.114 8.35857L15.864 7.73357L14.0752 11.3113ZM15.3252 11.9363L12.4967 9.10785L9.10548 12.4991L11.9339 15.3275L14.7623 18.156L18.1536 14.7647L15.3252 11.9363Z" fill="url(#paint1_linear_733_13689)" mask="url(#path-1-inside-1_733_13689)"/>
<mask id="path-3-inside-2_733_13689" fill="white">
<path d="M4.78104 13.375C4.73324 13.3298 4.66995 13.3046 4.60417 13.3046C4.53839 13.3046 4.4751 13.3298 4.42729 13.375L4.10979 13.6925C3.26252 12.5425 2.7951 11.1569 2.7727 9.72872C2.75029 8.30053 3.17401 6.90092 3.98479 5.72497C4.2277 5.85864 4.50739 5.90998 4.78194 5.87131C5.05649 5.83264 5.31111 5.70604 5.50765 5.51049C5.7042 5.31493 5.83207 5.06095 5.87212 4.78659C5.91217 4.51224 5.86223 4.2323 5.72979 3.98872C6.90574 3.17794 8.30535 2.75422 9.73354 2.77663C11.1617 2.79903 12.5474 3.26645 13.6973 4.11372L13.3748 4.42747C13.3283 4.47435 13.3022 4.5377 13.3023 4.60372C13.3021 4.63662 13.3084 4.66924 13.3208 4.6997C13.3333 4.73016 13.3516 4.75786 13.3748 4.78122L14.4773 5.87497C14.5241 5.92154 14.5875 5.94767 14.6535 5.94767C14.7196 5.94767 14.783 5.92154 14.8298 5.87497L15.926 4.77872C15.9493 4.7555 15.9677 4.72793 15.9803 4.69758C15.9929 4.66723 15.9994 4.6347 15.9994 4.60185C15.9994 4.56899 15.9929 4.53646 15.9803 4.50611C15.9677 4.47576 15.9493 4.44819 15.926 4.42497L14.8298 3.32872C14.783 3.28216 14.7196 3.25602 14.6535 3.25602C14.5875 3.25602 14.5241 3.28216 14.4773 3.32872L14.0535 3.74997C13.0092 2.96409 11.7745 2.47034 10.4762 2.31943C9.17789 2.16851 7.86283 2.36586 6.66604 2.89122L8.10729 1.45372C8.27071 1.53181 8.4565 1.54948 8.63171 1.50361C8.80692 1.45774 8.96022 1.35129 9.06441 1.20315C9.1686 1.055 9.21695 0.87474 9.20087 0.69434C9.1848 0.51394 9.10535 0.345066 8.9766 0.217675C8.84786 0.0902847 8.67816 0.0126145 8.4976 -0.00155619C8.31704 -0.0157269 8.1373 0.0345179 7.99026 0.140265C7.84322 0.246011 7.7384 0.400423 7.69438 0.576107C7.65036 0.75179 7.66999 0.937388 7.74979 1.09997L5.31729 3.53622C5.07031 3.37055 4.77347 3.29577 4.47748 3.32465C4.18148 3.35353 3.9047 3.48429 3.6944 3.69458C3.48411 3.90488 3.35335 4.18166 3.32447 4.47766C3.29559 4.77365 3.37037 5.07049 3.53604 5.31747L1.09979 7.74997C0.936571 7.67044 0.750437 7.65135 0.574468 7.69609C0.398499 7.74083 0.24409 7.84651 0.13868 7.99435C0.0332695 8.14218 -0.0163152 8.3226 -0.00126333 8.50355C0.0137886 8.68449 0.0925022 8.85424 0.22089 8.98263C0.349279 9.11101 0.519026 9.18973 0.69997 9.20478C0.880913 9.21983 1.06133 9.17025 1.20917 9.06484C1.35701 8.95942 1.46269 8.80502 1.50743 8.62905C1.55217 8.45308 1.53308 8.26694 1.45354 8.10372L2.89479 6.66622C2.36891 7.86269 2.17093 9.17756 2.32119 10.4758C2.47145 11.7741 2.96452 13.009 3.74979 14.0537L3.32729 14.4775C3.28073 14.5243 3.25459 14.5877 3.25459 14.6537C3.25459 14.7198 3.28073 14.7831 3.32729 14.83L4.42354 15.9262C4.47021 15.9732 4.5336 15.9997 4.59979 16C4.63278 16 4.66545 15.9935 4.69591 15.9808C4.72638 15.9682 4.75404 15.9496 4.77729 15.9262L5.87479 14.83C5.92136 14.7831 5.94749 14.7198 5.94749 14.6537C5.94749 14.5877 5.92136 14.5243 5.87479 14.4775L4.78104 13.375ZM14.656 3.85622L15.3985 4.59872L14.656 5.34122L13.9135 4.59872L14.656 3.85622ZM8.24979 0.578723C8.28694 0.541271 8.33438 0.515698 8.38608 0.505249C8.43779 0.494799 8.49144 0.499945 8.54021 0.520033C8.58899 0.540121 8.6307 0.574246 8.66005 0.618077C8.6894 0.661909 8.70507 0.713472 8.70507 0.766223C8.70507 0.818974 8.6894 0.870537 8.66005 0.914369C8.6307 0.9582 8.58899 0.992325 8.54021 1.01241C8.49144 1.0325 8.43779 1.03765 8.38608 1.0272C8.33438 1.01675 8.28694 0.991175 8.24979 0.953723C8.22515 0.929111 8.2056 0.899883 8.19226 0.86771C8.17892 0.835538 8.17206 0.801051 8.17206 0.766223C8.17206 0.731395 8.17892 0.696908 8.19226 0.664736C8.2056 0.632563 8.22515 0.603335 8.24979 0.578723ZM4.04979 4.04997C4.12239 3.97703 4.20868 3.91915 4.30371 3.87965C4.39874 3.84016 4.50063 3.81982 4.60354 3.81982C4.70645 3.81982 4.80835 3.84016 4.90338 3.87965C4.99841 3.91915 5.0847 3.97703 5.15729 4.04997C5.26703 4.15953 5.3418 4.29918 5.37214 4.45125C5.40248 4.60331 5.38704 4.76096 5.32775 4.90425C5.26847 5.04753 5.16802 5.17001 5.0391 5.25619C4.91019 5.34236 4.75861 5.38836 4.60354 5.38836C4.44848 5.38836 4.2969 5.34236 4.16798 5.25619C4.03907 5.17001 3.93861 5.04753 3.87933 4.90425C3.82005 4.76096 3.8046 4.60331 3.83494 4.45125C3.86529 4.29918 3.94006 4.15953 4.04979 4.04997ZM0.954792 8.62497C0.903754 8.66754 0.838642 8.68947 0.772253 8.68647C0.705864 8.68347 0.642996 8.65575 0.596004 8.60876C0.549012 8.56177 0.521292 8.4989 0.518293 8.43251C0.515293 8.36612 0.53723 8.30101 0.579792 8.24997C0.629818 8.20081 0.697152 8.17326 0.767292 8.17326C0.837432 8.17326 0.904767 8.20081 0.954792 8.24997C0.979435 8.27458 0.998984 8.30381 1.01232 8.33599C1.02566 8.36816 1.03253 8.40265 1.03253 8.43747C1.03253 8.4723 1.02566 8.50679 1.01232 8.53896C0.998984 8.57113 0.979435 8.60036 0.954792 8.62497ZM4.60354 15.3912L3.86104 14.6487L4.60354 13.9062L5.34604 14.6487L4.60354 15.3912Z"/>
</mask>
<path d="M4.78104 13.375C4.73324 13.3298 4.66995 13.3046 4.60417 13.3046C4.53839 13.3046 4.4751 13.3298 4.42729 13.375L4.10979 13.6925C3.26252 12.5425 2.7951 11.1569 2.7727 9.72872C2.75029 8.30053 3.17401 6.90092 3.98479 5.72497C4.2277 5.85864 4.50739 5.90998 4.78194 5.87131C5.05649 5.83264 5.31111 5.70604 5.50765 5.51049C5.7042 5.31493 5.83207 5.06095 5.87212 4.78659C5.91217 4.51224 5.86223 4.2323 5.72979 3.98872C6.90574 3.17794 8.30535 2.75422 9.73354 2.77663C11.1617 2.79903 12.5474 3.26645 13.6973 4.11372L13.3748 4.42747C13.3283 4.47435 13.3022 4.5377 13.3023 4.60372C13.3021 4.63662 13.3084 4.66924 13.3208 4.6997C13.3333 4.73016 13.3516 4.75786 13.3748 4.78122L14.4773 5.87497C14.5241 5.92154 14.5875 5.94767 14.6535 5.94767C14.7196 5.94767 14.783 5.92154 14.8298 5.87497L15.926 4.77872C15.9493 4.7555 15.9677 4.72793 15.9803 4.69758C15.9929 4.66723 15.9994 4.6347 15.9994 4.60185C15.9994 4.56899 15.9929 4.53646 15.9803 4.50611C15.9677 4.47576 15.9493 4.44819 15.926 4.42497L14.8298 3.32872C14.783 3.28216 14.7196 3.25602 14.6535 3.25602C14.5875 3.25602 14.5241 3.28216 14.4773 3.32872L14.0535 3.74997C13.0092 2.96409 11.7745 2.47034 10.4762 2.31943C9.17789 2.16851 7.86283 2.36586 6.66604 2.89122L8.10729 1.45372C8.27071 1.53181 8.4565 1.54948 8.63171 1.50361C8.80692 1.45774 8.96022 1.35129 9.06441 1.20315C9.1686 1.055 9.21695 0.87474 9.20087 0.69434C9.1848 0.51394 9.10535 0.345066 8.9766 0.217675C8.84786 0.0902847 8.67816 0.0126145 8.4976 -0.00155619C8.31704 -0.0157269 8.1373 0.0345179 7.99026 0.140265C7.84322 0.246011 7.7384 0.400423 7.69438 0.576107C7.65036 0.75179 7.66999 0.937388 7.74979 1.09997L5.31729 3.53622C5.07031 3.37055 4.77347 3.29577 4.47748 3.32465C4.18148 3.35353 3.9047 3.48429 3.6944 3.69458C3.48411 3.90488 3.35335 4.18166 3.32447 4.47766C3.29559 4.77365 3.37037 5.07049 3.53604 5.31747L1.09979 7.74997C0.936571 7.67044 0.750437 7.65135 0.574468 7.69609C0.398499 7.74083 0.24409 7.84651 0.13868 7.99435C0.0332695 8.14218 -0.0163152 8.3226 -0.00126333 8.50355C0.0137886 8.68449 0.0925022 8.85424 0.22089 8.98263C0.349279 9.11101 0.519026 9.18973 0.69997 9.20478C0.880913 9.21983 1.06133 9.17025 1.20917 9.06484C1.35701 8.95942 1.46269 8.80502 1.50743 8.62905C1.55217 8.45308 1.53308 8.26694 1.45354 8.10372L2.89479 6.66622C2.36891 7.86269 2.17093 9.17756 2.32119 10.4758C2.47145 11.7741 2.96452 13.009 3.74979 14.0537L3.32729 14.4775C3.28073 14.5243 3.25459 14.5877 3.25459 14.6537C3.25459 14.7198 3.28073 14.7831 3.32729 14.83L4.42354 15.9262C4.47021 15.9732 4.5336 15.9997 4.59979 16C4.63278 16 4.66545 15.9935 4.69591 15.9808C4.72638 15.9682 4.75404 15.9496 4.77729 15.9262L5.87479 14.83C5.92136 14.7831 5.94749 14.7198 5.94749 14.6537C5.94749 14.5877 5.92136 14.5243 5.87479 14.4775L4.78104 13.375ZM14.656 3.85622L15.3985 4.59872L14.656 5.34122L13.9135 4.59872L14.656 3.85622ZM8.24979 0.578723C8.28694 0.541271 8.33438 0.515698 8.38608 0.505249C8.43779 0.494799 8.49144 0.499945 8.54021 0.520033C8.58899 0.540121 8.6307 0.574246 8.66005 0.618077C8.6894 0.661909 8.70507 0.713472 8.70507 0.766223C8.70507 0.818974 8.6894 0.870537 8.66005 0.914369C8.6307 0.9582 8.58899 0.992325 8.54021 1.01241C8.49144 1.0325 8.43779 1.03765 8.38608 1.0272C8.33438 1.01675 8.28694 0.991175 8.24979 0.953723C8.22515 0.929111 8.2056 0.899883 8.19226 0.86771C8.17892 0.835538 8.17206 0.801051 8.17206 0.766223C8.17206 0.731395 8.17892 0.696908 8.19226 0.664736C8.2056 0.632563 8.22515 0.603335 8.24979 0.578723ZM4.04979 4.04997C4.12239 3.97703 4.20868 3.91915 4.30371 3.87965C4.39874 3.84016 4.50063 3.81982 4.60354 3.81982C4.70645 3.81982 4.80835 3.84016 4.90338 3.87965C4.99841 3.91915 5.0847 3.97703 5.15729 4.04997C5.26703 4.15953 5.3418 4.29918 5.37214 4.45125C5.40248 4.60331 5.38704 4.76096 5.32775 4.90425C5.26847 5.04753 5.16802 5.17001 5.0391 5.25619C4.91019 5.34236 4.75861 5.38836 4.60354 5.38836C4.44848 5.38836 4.2969 5.34236 4.16798 5.25619C4.03907 5.17001 3.93861 5.04753 3.87933 4.90425C3.82005 4.76096 3.8046 4.60331 3.83494 4.45125C3.86529 4.29918 3.94006 4.15953 4.04979 4.04997ZM0.954792 8.62497C0.903754 8.66754 0.838642 8.68947 0.772253 8.68647C0.705864 8.68347 0.642996 8.65575 0.596004 8.60876C0.549012 8.56177 0.521292 8.4989 0.518293 8.43251C0.515293 8.36612 0.53723 8.30101 0.579792 8.24997C0.629818 8.20081 0.697152 8.17326 0.767292 8.17326C0.837432 8.17326 0.904767 8.20081 0.954792 8.24997C0.979435 8.27458 0.998984 8.30381 1.01232 8.33599C1.02566 8.36816 1.03253 8.40265 1.03253 8.43747C1.03253 8.4723 1.02566 8.50679 1.01232 8.53896C0.998984 8.57113 0.979435 8.60036 0.954792 8.62497ZM4.60354 15.3912L3.86104 14.6487L4.60354 13.9062L5.34604 14.6487L4.60354 15.3912Z" fill="url(#paint2_linear_733_13689)" stroke="url(#paint3_linear_733_13689)" stroke-width="8" mask="url(#path-3-inside-2_733_13689)"/>
</g>
<defs>
<linearGradient id="paint0_linear_733_13689" x1="5.35742" y1="5.93724" x2="16.2264" y2="7.46957" gradientUnits="userSpaceOnUse">
<stop stop-color="#FCFFEC"/>
<stop offset="1" stop-color="#FCFFEC" stop-opacity="0.02"/>
</linearGradient>
<linearGradient id="paint1_linear_733_13689" x1="5.35742" y1="5.93724" x2="16.2264" y2="7.46957" gradientUnits="userSpaceOnUse">
<stop stop-color="#FCFFEC"/>
<stop offset="1" stop-color="#FCFFEC" stop-opacity="0.02"/>
</linearGradient>
<linearGradient id="paint2_linear_733_13689" x1="-0.00390672" y1="0.868103" x2="16.3356" y2="3.1712" gradientUnits="userSpaceOnUse">
<stop stop-color="#FCFFEC"/>
<stop offset="1" stop-color="#FCFFEC" stop-opacity="0.02"/>
</linearGradient>
<linearGradient id="paint3_linear_733_13689" x1="-0.00390672" y1="0.868103" x2="16.3356" y2="3.1712" gradientUnits="userSpaceOnUse">
<stop stop-color="#FCFFEC"/>
<stop offset="1" stop-color="#FCFFEC" stop-opacity="0.02"/>
</linearGradient>
<clipPath id="clip0_733_13689">
<rect width="16" height="16" fill="white"/>
</clipPath>
</defs>
</svg>
