<svg width="16" height="17" viewBox="0 0 16 17" fill="none" xmlns="http://www.w3.org/2000/svg">
<path fill-rule="evenodd" clip-rule="evenodd" d="M9.51921 1.93487C9.27231 1.83337 8.95932 1.83337 8.33333 1.83337C7.70735 1.83337 7.39435 1.83337 7.14746 1.93487C6.81827 2.07019 6.55673 2.32976 6.42037 2.65646C6.35813 2.8056 6.33377 2.97904 6.32423 3.23203C6.31022 3.60383 6.11811 3.94797 5.79344 4.13399C5.46879 4.32002 5.07243 4.31307 4.74099 4.13921C4.51545 4.02091 4.35192 3.95512 4.19066 3.93405C3.83739 3.88789 3.48012 3.9829 3.19744 4.19817C2.98542 4.35963 2.82893 4.62864 2.51594 5.16666C2.20294 5.70469 2.04645 5.9737 2.01156 6.23664C1.96506 6.58724 2.06079 6.94181 2.2777 7.22236C2.3767 7.35041 2.51585 7.45806 2.7318 7.59272C3.04928 7.7907 3.25355 8.12795 3.25353 8.50006C3.25351 8.87213 3.04924 9.20933 2.7318 9.40727C2.51581 9.54196 2.37665 9.64961 2.27763 9.77768C2.06072 10.0582 1.96499 10.4128 2.0115 10.7634C2.04638 11.0263 2.20288 11.2954 2.51587 11.8334C2.82886 12.3714 2.98536 12.6404 3.19737 12.8019C3.48005 13.0171 3.83733 13.1121 4.19059 13.066C4.35185 13.0449 4.51537 12.9791 4.74089 12.8608C5.07235 12.687 5.46873 12.68 5.79341 12.8661C6.11809 13.0521 6.31022 13.3963 6.32424 13.7681C6.33377 14.0211 6.35813 14.1945 6.42037 14.3436C6.55673 14.6703 6.81827 14.9299 7.14746 15.0652C7.39435 15.1667 7.70735 15.1667 8.33333 15.1667C8.95932 15.1667 9.27231 15.1667 9.51921 15.0652C9.8484 14.9299 10.1099 14.6703 10.2463 14.3436C10.3085 14.1945 10.3329 14.021 10.3424 13.768C10.3564 13.3962 10.5485 13.0521 10.8732 12.8661C11.1979 12.68 11.5943 12.6869 11.9257 12.8608C12.1512 12.9791 12.3148 13.0449 12.476 13.0659C12.8293 13.1121 13.1865 13.0171 13.4692 12.8018C13.6812 12.6404 13.8377 12.3714 14.1507 11.8333C14.4637 11.2953 14.6202 11.0263 14.6551 10.7633C14.7016 10.4127 14.6059 10.0582 14.389 9.77763C14.29 9.64957 14.1508 9.54192 13.9348 9.40724C13.6174 9.20929 13.4131 8.87206 13.4131 8.49998C13.4132 8.12794 13.6174 7.79076 13.9348 7.59283C14.1508 7.45814 14.29 7.35048 14.389 7.22241C14.6059 6.94186 14.7017 6.58729 14.6552 6.23669C14.6203 5.97374 14.4638 5.70473 14.1508 5.16671C13.8378 4.62868 13.6813 4.35967 13.4693 4.19822C13.1866 3.98295 12.8293 3.88794 12.4761 3.9341C12.3148 3.95517 12.1513 4.02095 11.9258 4.13924C11.5943 4.3131 11.1979 4.32005 10.8733 4.13402C10.5486 3.94798 10.3564 3.60381 10.3424 3.232C10.3329 2.97903 10.3085 2.80559 10.2463 2.65646C10.1099 2.32976 9.8484 2.07019 9.51921 1.93487ZM8.33333 10.5C9.44631 10.5 10.3486 9.60461 10.3486 8.50004C10.3486 7.39547 9.44631 6.50004 8.33333 6.50004C7.22035 6.50004 6.3181 7.39547 6.3181 8.50004C6.3181 9.60461 7.22035 10.5 8.33333 10.5Z" fill="url(#paint0_linear_851_5485)"/>
<defs>
<linearGradient id="paint0_linear_851_5485" x1="2" y1="2.55987" x2="14.9574" y2="4.295" gradientUnits="userSpaceOnUse">
<stop stop-color="#FCFFEC"/>
<stop offset="1" stop-color="#FCFFEC" stop-opacity="0.02"/>
</linearGradient>
</defs>
</svg>
