<svg width="16" height="16" viewBox="0 0 16 16" fill="none" xmlns="http://www.w3.org/2000/svg">
<path fill-rule="evenodd" clip-rule="evenodd" d="M4.89046 2.25512C5.28755 1.24829 6.71245 1.2483 7.10954 2.25512L7.82422 4.06721C7.84381 4.11688 7.88312 4.15619 7.93279 4.17578L9.74488 4.89046C10.7517 5.28755 10.7517 6.71245 9.74488 7.10954L7.93279 7.82422C7.88312 7.84381 7.84381 7.88312 7.82422 7.93279L7.10954 9.74488C6.71245 10.7517 5.28755 10.7517 4.89046 9.74488L4.17578 7.93279C4.15619 7.88312 4.11688 7.84381 4.06721 7.82422L2.25512 7.10954C1.24829 6.71245 1.2483 5.28755 2.25512 4.89046L4.06721 4.17578C4.11688 4.15619 4.15619 4.11688 4.17578 4.06721L4.89046 2.25512ZM6.17927 2.62201C6.11511 2.45933 5.88488 2.45933 5.82073 2.62201L5.10605 4.4341C4.98481 4.74149 4.74149 4.98481 4.4341 5.10605L2.62201 5.82073C2.45933 5.88489 2.45933 6.11512 2.62201 6.17927L4.4341 6.89395C4.74149 7.01519 4.98481 7.25851 5.10605 7.5659L5.82073 9.37799C5.88489 9.54067 6.11512 9.54067 6.17927 9.37799L6.89395 7.5659C7.01519 7.25851 7.25851 7.01519 7.5659 6.89395L9.37799 6.17927C9.54067 6.11511 9.54067 5.88489 9.37799 5.82073L7.5659 5.10605C7.25851 4.98481 7.01519 4.74149 6.89395 4.4341L6.17927 2.62201ZM10.5272 8.71531C10.8157 7.98379 11.851 7.98379 12.1395 8.71531L12.652 10.0147L13.9514 10.5272C14.6829 10.8157 14.6829 11.851 13.9514 12.1395L12.652 12.652L12.1395 13.9514C11.851 14.6829 10.8157 14.6829 10.5272 13.9514L10.0147 12.652L8.71531 12.1395C7.98379 11.851 7.98379 10.8157 8.71531 10.5272L10.0147 10.0147L10.5272 8.71531ZM11.3333 9.39689L10.9237 10.4355C10.8356 10.6588 10.6588 10.8356 10.4355 10.9237L9.39689 11.3333L10.4355 11.743C10.6588 11.831 10.8356 12.0078 10.9237 12.2312L11.3333 13.2698L11.743 12.2312C11.831 12.0078 12.0078 11.831 12.2312 11.743L13.2698 11.3333L12.2312 10.9237C12.0078 10.8356 11.831 10.6588 11.743 10.4355L11.3333 9.39689Z" fill="#EDEDEB"/>
</svg>
