<svg width="14" height="14" viewBox="0 0 14 14" fill="none" xmlns="http://www.w3.org/2000/svg">
<path d="M6.50016 4.23182C5.87623 4.40242 5.50016 4.88119 5.50016 5.3335C5.50016 5.7858 5.87623 6.26457 6.50016 6.43518V4.23182Z" fill="url(#paint0_linear_2003_10629)"/>
<path d="M7.50016 7.56515V9.76851C8.1241 9.5979 8.50016 9.11914 8.50016 8.66683C8.50016 8.21452 8.1241 7.73576 7.50016 7.56515Z" fill="url(#paint1_linear_2003_10629)"/>
<path fill-rule="evenodd" clip-rule="evenodd" d="M13.6668 7.00016C13.6668 10.6821 10.6821 13.6668 7.00016 13.6668C3.31826 13.6668 0.333496 10.6821 0.333496 7.00016C0.333496 3.31826 3.31826 0.333496 7.00016 0.333496C10.6821 0.333496 13.6668 3.31826 13.6668 7.00016ZM7.00016 2.50016C7.27631 2.50016 7.50016 2.72402 7.50016 3.00016V3.21132C8.58712 3.40594 9.50016 4.22257 9.50016 5.3335C9.50016 5.60964 9.27631 5.8335 9.00016 5.8335C8.72402 5.8335 8.50016 5.60964 8.50016 5.3335C8.50016 4.88119 8.1241 4.40242 7.50016 4.23182V6.54465C8.58712 6.73928 9.50016 7.5559 9.50016 8.66683C9.50016 9.77776 8.58712 10.5944 7.50016 10.789V11.0002C7.50016 11.2763 7.27631 11.5002 7.00016 11.5002C6.72402 11.5002 6.50016 11.2763 6.50016 11.0002V10.789C5.41321 10.5944 4.50016 9.77776 4.50016 8.66683C4.50016 8.39069 4.72402 8.16683 5.00016 8.16683C5.27631 8.16683 5.50016 8.39069 5.50016 8.66683C5.50016 9.11914 5.87623 9.5979 6.50016 9.76851V7.45567C5.41321 7.26105 4.50016 6.44442 4.50016 5.3335C4.50016 4.22257 5.41321 3.40594 6.50016 3.21132V3.00016C6.50016 2.72402 6.72402 2.50016 7.00016 2.50016Z" fill="url(#paint2_linear_2003_10629)"/>
<defs>
<linearGradient id="paint0_linear_2003_10629" x1="0.333496" y1="1.05999" x2="13.947" y2="2.97892" gradientUnits="userSpaceOnUse">
<stop stop-color="#FCFFEC"/>
<stop offset="1" stop-color="#FCFFEC" stop-opacity="0.02"/>
</linearGradient>
<linearGradient id="paint1_linear_2003_10629" x1="0.333496" y1="1.05999" x2="13.947" y2="2.97892" gradientUnits="userSpaceOnUse">
<stop stop-color="#FCFFEC"/>
<stop offset="1" stop-color="#FCFFEC" stop-opacity="0.02"/>
</linearGradient>
<linearGradient id="paint2_linear_2003_10629" x1="0.333496" y1="1.05999" x2="13.947" y2="2.97892" gradientUnits="userSpaceOnUse">
<stop stop-color="#FCFFEC"/>
<stop offset="1" stop-color="#FCFFEC" stop-opacity="0.02"/>
</linearGradient>
</defs>
</svg>
