<svg width="16" height="17" viewBox="0 0 16 17" fill="none" xmlns="http://www.w3.org/2000/svg">
<path fill-rule="evenodd" clip-rule="evenodd" d="M7.96501 1.33337H8.03434C8.63333 1.33336 9.13281 1.33334 9.52933 1.38665C9.94786 1.44292 10.3257 1.5667 10.6294 1.87035C10.933 2.17399 11.0568 2.55186 11.1131 2.97039C11.1525 3.26346 11.1627 3.61277 11.1654 4.01692C11.5978 4.0308 11.9832 4.05608 12.3257 4.10213C13.1073 4.20722 13.7399 4.42863 14.2388 4.92754C14.7378 5.42645 14.9592 6.05908 15.0643 6.84069C15.1664 7.60017 15.1664 8.57059 15.1663 9.79577V9.87098C15.1664 11.0962 15.1664 12.0666 15.0643 12.8261C14.9592 13.6077 14.7378 14.2403 14.2388 14.7392C13.7399 15.2381 13.1073 15.4595 12.3257 15.5646C11.5662 15.6667 10.5958 15.6667 9.37062 15.6667H6.62873C5.40356 15.6667 4.43314 15.6667 3.67366 15.5646C2.89205 15.4595 2.25941 15.2381 1.7605 14.7392C1.26159 14.2403 1.04018 13.6077 0.935098 12.8261C0.832989 12.0666 0.832997 11.0962 0.833008 9.87099V9.79576C0.832997 8.57059 0.832989 7.60017 0.935098 6.84069C1.04018 6.05908 1.26159 5.42645 1.7605 4.92754C2.25941 4.42863 2.89205 4.20722 3.67366 4.10213C4.01618 4.05608 4.4016 4.0308 4.83394 4.01692C4.83661 3.61277 4.84688 3.26346 4.88628 2.97039C4.94255 2.55186 5.06633 2.17399 5.36998 1.87035C5.67363 1.5667 6.05149 1.44292 6.47002 1.38665C6.86654 1.33334 7.36602 1.33336 7.96501 1.33337ZM5.83421 4.00122C6.08629 4.00004 6.35097 4.00004 6.62873 4.00004H9.37062C9.64839 4.00004 9.91306 4.00004 10.1651 4.00122C10.1623 3.62101 10.153 3.33421 10.122 3.10364C10.0806 2.796 10.0091 2.66433 9.92226 2.57745C9.83539 2.49058 9.70372 2.41909 9.39608 2.37773C9.07406 2.33444 8.64235 2.33338 7.99968 2.33338C7.357 2.33338 6.92529 2.33444 6.60327 2.37773C6.29563 2.41909 6.16396 2.49058 6.07709 2.57745C5.99021 2.66433 5.91873 2.796 5.87737 3.10364C5.84637 3.33421 5.83702 3.62101 5.83421 4.00122ZM3.49967 5.14398C3.0125 5.24177 2.70358 5.39867 2.46761 5.63464C2.18547 5.91678 2.01636 6.30321 1.92618 6.97394C1.83407 7.65905 1.83301 8.56216 1.83301 9.83337C1.83301 11.1046 1.83407 12.0077 1.92618 12.6928C2.01636 13.3635 2.18547 13.75 2.46761 14.0321C2.70358 14.2681 3.0125 14.425 3.49967 14.5228V12.9723C3.36623 12.9463 3.21093 12.8898 3.07709 12.756C2.91989 12.5988 2.86933 12.412 2.84967 12.2658C2.83289 12.1409 2.83295 11.9931 2.833 11.8563C2.83301 11.8486 2.83301 11.841 2.83301 11.8334V11.1667C2.83301 11.1591 2.83301 11.1514 2.833 11.1437C2.83295 11.007 2.83289 10.8591 2.84967 10.7343C2.86933 10.5881 2.91989 10.4013 3.07709 10.2441C3.21093 10.1103 3.36623 10.0537 3.49967 10.0278V5.14398ZM4.49967 5.03175V10H6.66634C6.67396 10 6.68161 10 6.6893 10C6.82605 9.99998 6.97391 9.99992 7.09872 10.0167C7.24494 10.0364 7.43173 10.0869 7.58893 10.2441C7.74613 10.4013 7.79669 10.5881 7.81635 10.7343C7.83313 10.8591 7.83307 11.007 7.83301 11.1437C7.83301 11.1514 7.83301 11.1591 7.83301 11.1667V11.8334C7.83301 11.841 7.83301 11.8486 7.83301 11.8563C7.83307 11.9931 7.83313 12.1409 7.81635 12.2658C7.79669 12.412 7.74613 12.5988 7.58893 12.756C7.43173 12.9132 7.24494 12.9637 7.09872 12.9834C6.97391 13.0002 6.82605 13.0001 6.6893 13C6.68161 13 6.67396 13 6.66634 13H4.49967V14.635C5.0778 14.6662 5.78325 14.6667 6.66634 14.6667H9.33301C10.2161 14.6667 10.9215 14.6662 11.4997 14.635V5.03175C10.9215 5.00055 10.2161 5.00004 9.33301 5.00004H6.66634C5.78325 5.00004 5.0778 5.00055 4.49967 5.03175ZM12.4997 5.14398V14.5228C12.9869 14.425 13.2958 14.2681 13.5317 14.0321C13.8139 13.75 13.983 13.3635 14.0732 12.6928C14.1653 12.0077 14.1663 11.1046 14.1663 9.83337C14.1663 8.56216 14.1653 7.65905 14.0732 6.97394C13.983 6.30321 13.8139 5.91678 13.5317 5.63464C13.2958 5.39867 12.9869 5.24177 12.4997 5.14398ZM3.83378 11.0008C3.83303 11.0471 3.83301 11.1007 3.83301 11.1667V11.8334C3.83301 11.8994 3.83303 11.953 3.83378 11.9993C3.88008 12 3.93362 12 3.99967 12H6.66634C6.73239 12 6.78594 12 6.83224 11.9993C6.83299 11.953 6.83301 11.8994 6.83301 11.8334V11.1667C6.83301 11.1007 6.83299 11.0471 6.83224 11.0008C6.78594 11.0001 6.73239 11 6.66634 11H3.99967C3.93362 11 3.88008 11.0001 3.83378 11.0008Z" fill="#EDEDEB"/>
</svg>
