<svg width="12" height="15" viewBox="0 0 12 15" fill="none" xmlns="http://www.w3.org/2000/svg">
<path fill-rule="evenodd" clip-rule="evenodd" d="M1.44755 1.61442C0.666504 2.39547 0.666504 3.65255 0.666504 6.16671V8.83337C0.666504 11.3475 0.666504 12.6046 1.44755 13.3857C2.2286 14.1667 3.48568 14.1667 5.99984 14.1667C8.51399 14.1667 9.77107 14.1667 10.5521 13.3857C11.3332 12.6046 11.3332 11.3475 11.3332 8.83337V6.16671C11.3332 3.65255 11.3332 2.39547 10.5521 1.61442C9.77107 0.833374 8.51399 0.833374 5.99984 0.833374C3.48568 0.833374 2.2286 0.833374 1.44755 1.61442ZM3.99984 2.33337C3.72369 2.33337 3.49984 2.55723 3.49984 2.83337C3.49984 3.10952 3.72369 3.33337 3.99984 3.33337H7.99984C8.27598 3.33337 8.49984 3.10952 8.49984 2.83337C8.49984 2.55723 8.27598 2.33337 7.99984 2.33337H3.99984ZM5.99984 12.1667C6.73622 12.1667 7.33317 11.5698 7.33317 10.8334C7.33317 10.097 6.73622 9.50004 5.99984 9.50004C5.26346 9.50004 4.6665 10.097 4.6665 10.8334C4.6665 11.5698 5.26346 12.1667 5.99984 12.1667Z" fill="url(#paint0_linear_851_4454)"/>
<defs>
<linearGradient id="paint0_linear_851_4454" x1="0.666504" y1="1.55987" x2="11.6342" y2="2.79666" gradientUnits="userSpaceOnUse">
<stop stop-color="#FCFFEC"/>
<stop offset="1" stop-color="#FCFFEC" stop-opacity="0.02"/>
</linearGradient>
</defs>
</svg>
