<svg width="18" height="14" viewBox="0 0 18 14" fill="none" xmlns="http://www.w3.org/2000/svg">
<path fill-rule="evenodd" clip-rule="evenodd" d="M9.10158 3.30213C11.5887 3.30223 13.9807 4.22432 15.7832 5.8778C15.9189 6.00545 16.1359 6.00384 16.2696 5.87419L17.5671 4.61072C17.6348 4.54496 17.6725 4.45588 17.6719 4.3632C17.6714 4.27052 17.6326 4.18187 17.5641 4.11688C12.8331 -0.257833 5.36934 -0.257833 0.638329 4.11688C0.569797 4.18183 0.530913 4.27044 0.530281 4.36313C0.529649 4.45581 0.567322 4.54491 0.634962 4.61072L1.93283 5.87419C2.06642 6.00404 2.28355 6.00565 2.4192 5.8778C4.22194 4.22421 6.61422 3.30212 9.10158 3.30213ZM9.09822 7.5224C10.4555 7.52232 11.7644 8.03406 12.7705 8.95819C12.9066 9.08934 13.121 9.0865 13.2536 8.95178L14.5409 7.63247C14.6087 7.56327 14.6463 7.46939 14.6454 7.37184C14.6444 7.27429 14.6049 7.18121 14.5357 7.11342C11.4719 4.22257 6.72715 4.22257 3.66332 7.11342C3.59411 7.18121 3.55463 7.27434 3.55372 7.37192C3.55281 7.4695 3.59056 7.56337 3.65849 7.63247L4.9454 8.95178C5.07805 9.0865 5.29242 9.08934 5.4285 8.95819C6.43396 8.03467 7.7418 7.52297 9.09822 7.5224ZM11.6226 10.316C11.6246 10.4213 11.5875 10.5229 11.5202 10.5967L9.34354 13.0514C9.27974 13.1236 9.19274 13.1642 9.10197 13.1642C9.01121 13.1642 8.92421 13.1236 8.86041 13.0514L6.68338 10.5967C6.61613 10.5228 6.57913 10.4212 6.58112 10.3159C6.58312 10.2105 6.62393 10.1108 6.69391 10.0401C8.08401 8.72625 10.1199 8.72625 11.51 10.0401C11.58 10.1108 11.6207 10.2106 11.6226 10.316Z" fill="#EDEDEB"/>
</svg>
